<svg xmlns="http://www.w3.org/2000/svg" version="1.1" xmlns:xlink="http://www.w3.org/1999/xlink" width="512" height="512" x="0" y="0" viewBox="0 0 24 24" style="enable-background:new 0 0 512 512" xml:space="preserve" class=""><g transform="matrix(1.1499999999999992,0,0,1.1499999999999992,-1.7999998033046651,-1.8014959216117763)"><path d="m21.56 10.96-.86-.99h.37c.64 0 1.16-.52 1.16-1.16v-.38c0-.64-.52-1.16-1.16-1.16h-.33c-.28 0-.5.22-.5.5s.22.5.5.5h.33c.09 0 .16.07.16.16v.38c0 .09-.07.16-.16.16h-.7l-.75-2.45a3.711 3.711 0 0 0-3.57-2.63h-8.1c-1.65 0-3.08 1.06-3.57 2.63l-.75 2.45h-.7c-.09 0-.16-.07-.16-.16v-.38c0-.09.07-.16.16-.16h.33c.28 0 .5-.22.5-.5s-.22-.5-.5-.5h-.33c-.64 0-1.16.52-1.16 1.16v.38c0 .64.52 1.16 1.16 1.16h.37l-.86.99c-.54.62-.84 1.42-.84 2.25v2.87c0 .61.34 1.14.85 1.42v1.13c0 .83.67 1.5 1.5 1.5h1.72c.83 0 1.5-.67 1.5-1.5v-.92h9.66v.92c0 .83.67 1.5 1.5 1.5h1.72c.83 0 1.5-.67 1.5-1.5V17.5c.5-.28.85-.8.85-1.42v-2.87c0-.83-.3-1.63-.84-2.25zm-18.36.66.96-1.1a.4.4 0 0 0 .1-.18l.2-.65.03-.09.86-2.78a2.733 2.733 0 0 1 2.61-1.93h8.09c1.21 0 2.26.77 2.61 1.93l.86 2.78s.01.06.03.09l.2.65a.4.4 0 0 0 .1.18l.96 1.1c.38.44.6 1.01.6 1.6v1.45h-2.28c-.33 0-.61-.27-.61-.61v-.64c0-.33.27-.61.61-.61h1.22c.28 0 .5-.22.5-.5s-.22-.5-.5-.5h-1.22c-.89 0-1.61.72-1.61 1.61v.64c0 .89.72 1.61 1.61 1.61h2.28v.42c0 .34-.28.62-.62.62h-5.14V15c0-.28-.22-.5-.5-.5H8.87c-.28 0-.5.22-.5.5v1.71H3.23c-.34 0-.62-.28-.62-.62v-.42h2.28c.89 0 1.61-.72 1.61-1.61v-.64c0-.89-.72-1.61-1.61-1.61H3.67c-.28 0-.5.22-.5.5s.22.5.5.5h1.22c.33 0 .61.27.61.61v.64c0 .33-.27.61-.61.61H2.61v-1.45c0-.59.21-1.15.6-1.6zm2.97 7c0 .28-.22.5-.5.5H3.95c-.28 0-.5-.22-.5-.5v-.92h2.72zm3.19-1.92v-1.21h5.28v1.21zm11.19 1.92c0 .28-.22.5-.5.5h-1.72c-.28 0-.5-.22-.5-.5v-.92h2.72z" fill="#5671f1" opacity="1" data-original="#000000" class=""></path><path d="M5.99 9.96h12.02c.28 0 .5-.22.5-.5s-.22-.5-.5-.5H5.99c-.28 0-.5.22-.5.5s.22.5.5.5zM16.09 11.8H7.91c-.28 0-.5.22-.5.5s.22.5.5.5h8.18c.28 0 .5-.22.5-.5s-.22-.5-.5-.5z" fill="#5671f1" opacity="1" data-original="#000000" class=""></path></g></svg>