<svg xmlns="http://www.w3.org/2000/svg" version="1.1" xmlns:xlink="http://www.w3.org/1999/xlink" width="512" height="512" x="0" y="0" viewBox="0 0 100 100" style="enable-background:new 0 0 512 512" xml:space="preserve" class=""><g transform="matrix(1.2300000000000004,0,0,1.2300000000000004,-11.500000219345111,-11.500000438690194)"><path fill="#fdb2b0" d="M11.35 41.6c0-3.71 3.01-6.72 6.72-6.72h3.36c3.71 0 6.72 3.01 6.72 6.72z" opacity="1" data-original="#fdb2b0" class=""></path><path fill="#fd3e5f" d="M28.15 43.28c-.93 0-1.68-.75-1.68-1.68 0-2.78-2.26-5.04-5.04-5.04h-3.36c-2.78 0-5.04 2.26-5.04 5.04 0 .93-.75 1.68-1.68 1.68s-1.68-.75-1.68-1.68c0-4.63 3.77-8.4 8.4-8.4h3.36c4.63 0 8.4 3.77 8.4 8.4 0 .93-.75 1.68-1.68 1.68z" opacity="1" data-original="#fd3e5f"></path><path fill="#ffffff" d="M15.55 29.83c0 2.78 1.88 5.04 4.2 5.04s4.2-2.26 4.2-5.04-1.88-5.04-4.2-5.04-4.2 2.26-4.2 5.04z" opacity="1" data-original="#ffffff"></path><path fill="#fbae22" d="M19.75 36.56c-3.24 0-5.88-3.02-5.88-6.72 0-3.71 2.64-6.72 5.88-6.72s5.88 3.02 5.88 6.72-2.64 6.72-5.88 6.72zm0-10.09c-1.37 0-2.52 1.54-2.52 3.36s1.15 3.36 2.52 3.36 2.52-1.54 2.52-3.36-1.15-3.36-2.52-3.36z" opacity="1" data-original="#fbae22"></path><path fill="#92ebfd" d="M53.36 31.51c0-3.71 3.01-6.72 6.72-6.72h3.36c3.71 0 6.72 3.01 6.72 6.72z" opacity="1" data-original="#92ebfd"></path><path fill="#0ab5fd" d="M70.17 33.19c-.93 0-1.68-.75-1.68-1.68 0-2.78-2.26-5.04-5.04-5.04h-3.36c-2.78 0-5.04 2.26-5.04 5.04 0 .93-.75 1.68-1.68 1.68s-1.68-.75-1.68-1.68c0-4.63 3.77-8.4 8.4-8.4h3.36c4.63 0 8.4 3.77 8.4 8.4 0 .93-.76 1.68-1.68 1.68z" opacity="1" data-original="#0ab5fd"></path><path fill="#ffffff" d="M57.56 19.75c0 2.78 1.88 5.04 4.2 5.04s4.2-2.26 4.2-5.04-1.88-5.04-4.2-5.04-4.2 2.26-4.2 5.04z" opacity="1" data-original="#ffffff"></path><path fill="#fbae22" d="M61.76 26.47c-3.24 0-5.88-3.02-5.88-6.72 0-3.71 2.64-6.72 5.88-6.72s5.88 3.02 5.88 6.72c.01 3.71-2.63 6.72-5.88 6.72zm0-10.08c-1.37 0-2.52 1.54-2.52 3.36s1.15 3.36 2.52 3.36 2.52-1.54 2.52-3.36-1.15-3.36-2.52-3.36z" opacity="1" data-original="#fbae22"></path><path fill="#a8ffa8" d="M29.83 31.51c0-3.71 3.01-6.72 6.72-6.72h3.36c3.71 0 6.72 3.01 6.72 6.72z" opacity="1" data-original="#a8ffa8" class=""></path><path fill="#04b46f" d="M46.64 33.19c-.93 0-1.68-.75-1.68-1.68 0-2.78-2.26-5.04-5.04-5.04h-3.36c-2.78 0-5.04 2.26-5.04 5.04 0 .93-.75 1.68-1.68 1.68s-1.68-.75-1.68-1.68c0-4.63 3.77-8.4 8.4-8.4h3.36c4.63 0 8.4 3.77 8.4 8.4 0 .93-.75 1.68-1.68 1.68z" opacity="1" data-original="#04b46f"></path><path fill="#ffffff" d="M34.03 19.75c0 2.78 1.88 5.04 4.2 5.04s4.2-2.26 4.2-5.04-1.88-5.04-4.2-5.04c-2.31 0-4.2 2.26-4.2 5.04z" opacity="1" data-original="#ffffff"></path><path fill="#fbae22" d="M38.24 26.47c-3.24 0-5.88-3.02-5.88-6.72 0-3.71 2.64-6.72 5.88-6.72s5.88 3.02 5.88 6.72c0 3.71-2.64 6.72-5.88 6.72zm0-10.08c-1.37 0-2.52 1.54-2.52 3.36s1.15 3.36 2.52 3.36 2.52-1.54 2.52-3.36-1.16-3.36-2.52-3.36z" opacity="1" data-original="#fbae22"></path><path fill="#97b0f9" d="M71.85 41.6c0-3.71 3.01-6.72 6.72-6.72h3.36c3.71 0 6.72 3.01 6.72 6.72z" opacity="1" data-original="#97b0f9"></path><path fill="#0056d3" d="M88.65 43.28c-.93 0-1.68-.75-1.68-1.68 0-2.78-2.26-5.04-5.04-5.04h-3.36c-2.78 0-5.04 2.26-5.04 5.04 0 .93-.75 1.68-1.68 1.68s-1.68-.75-1.68-1.68c0-4.63 3.77-8.4 8.4-8.4h3.36c4.63 0 8.4 3.77 8.4 8.4 0 .93-.75 1.68-1.68 1.68z" opacity="1" data-original="#0056d3"></path><path fill="#ffffff" d="M76.05 29.83c0 2.78 1.88 5.04 4.2 5.04s4.2-2.26 4.2-5.04-1.88-5.04-4.2-5.04-4.2 2.26-4.2 5.04z" opacity="1" data-original="#ffffff"></path><path fill="#fbae22" d="M80.25 36.56c-3.24 0-5.88-3.02-5.88-6.72 0-3.71 2.64-6.72 5.88-6.72s5.88 3.02 5.88 6.72-2.64 6.72-5.88 6.72zm0-10.09c-1.37 0-2.52 1.54-2.52 3.36s1.15 3.36 2.52 3.36 2.52-1.54 2.52-3.36-1.15-3.36-2.52-3.36z" opacity="1" data-original="#fbae22"></path><path fill="#92ebfd" d="M60.98 43.28H39.02c-3.5 0-6.64 2.17-7.87 5.45l-3 6.31h43.69l-3-6.31a8.383 8.383 0 0 0-7.86-5.45z" opacity="1" data-original="#92ebfd"></path><path fill="#0ab5fd" d="M71.85 56.72h-43.7c-.58 0-1.11-.3-1.42-.78-.31-.49-.34-1.1-.1-1.62l3-6.31c1.41-3.78 5.21-6.41 9.39-6.41h21.97c4.18 0 7.97 2.63 9.44 6.54l2.94 6.18a1.681 1.681 0 0 1-1.52 2.4zm-41.04-3.36h38.38l-1.86-3.91c-1.03-2.74-3.56-4.49-6.35-4.49H39.02c-2.79 0-5.32 1.75-6.29 4.36z" opacity="1" data-original="#0ab5fd"></path><path fill="#fbae22" d="M28.15 56.72c-.25 0-.51-.06-.75-.18l-3.36-1.68a1.68 1.68 0 0 1-.75-2.26 1.68 1.68 0 0 1 2.26-.75l3.36 1.68c.83.42 1.17 1.42.75 2.25-.3.6-.89.94-1.51.94zM71.85 56.72c-.62 0-1.21-.34-1.51-.93a1.67 1.67 0 0 1 .75-2.25l3.36-1.68a1.683 1.683 0 1 1 1.51 3.01l-3.36 1.68c-.24.12-.5.17-.75.17z" opacity="1" data-original="#fbae22"></path><path fill="#97b0f9" d="M34.88 78.57H24.79c0 3.71 3.01 6.72 6.72 6.72h3.36v-6.72z" opacity="1" data-original="#97b0f9"></path><path fill="#0056d3" d="M34.88 86.97h-6.72c-2.78 0-5.04-2.26-5.04-5.04v-3.36c0-.93.75-1.68 1.68-1.68h10.08c.93 0 1.68.75 1.68 1.68v6.72c0 .93-.76 1.68-1.68 1.68zm-8.41-6.72v1.68c0 .93.75 1.68 1.68 1.68h5.04v-3.36z" opacity="1" data-original="#0056d3"></path><path fill="#97b0f9" d="M75.21 78.57H65.12v6.72h3.36c3.72 0 6.73-3.01 6.73-6.72z" opacity="1" data-original="#97b0f9"></path><path fill="#0056d3" d="M71.85 86.97h-6.72c-.93 0-1.68-.75-1.68-1.68v-6.72c0-.93.75-1.68 1.68-1.68h10.08c.93 0 1.68.75 1.68 1.68v3.36c0 2.78-2.26 5.04-5.04 5.04zm-5.04-3.36h5.04c.93 0 1.68-.75 1.68-1.68v-1.68h-6.72z" opacity="1" data-original="#0056d3"></path><path fill="#fdd6a0" d="M71.85 55.04h-43.7l-5.04 8.12v15.41h53.78V63.44z" opacity="1" data-original="#fdd6a0"></path><path fill="#fbae22" d="M51.92 80.25c-.92 0-1.68-.76-1.68-1.68s.76-1.68 1.68-1.68h23.29V63.91l-4.32-7.19h-41.8l-4.3 6.92v13.24h13.7c.92 0 1.66.76 1.66 1.68s-.74 1.68-1.66 1.68H23.11c-.44 0-.87-.19-1.19-.49-.3-.32-.49-.76-.49-1.19v-15.4c0-.3.08-.62.25-.87l5.04-8.13c.3-.49.86-.79 1.43-.79h43.69c.59 0 1.14.32 1.44.82l5.04 8.39c.15.27.24.57.24.87v15.13c0 .45-.17.87-.49 1.19s-.74.49-1.19.49H51.95c-.02-.01-.02-.01-.03-.01zm-6.73 0c-.92 0-1.66-.76-1.66-1.68s.74-1.68 1.66-1.68c.94 0 1.68.76 1.68 1.68s-.74 1.68-1.68 1.68z" opacity="1" data-original="#fbae22"></path><path fill="#ffffff" d="M59.04 63.44H40.96c-1.25 0-2.06 1.32-1.5 2.43l2.15 4.29H58.4l2.15-4.29c.56-1.11-.26-2.43-1.51-2.43z" opacity="1" data-original="#ffffff"></path><path fill="#0056d3" d="M58.4 71.85H41.6c-.64 0-1.22-.36-1.5-.93l-2.14-4.29c-.52-1.05-.47-2.27.15-3.27s1.69-1.59 2.86-1.59h18.09c1.17 0 2.24.6 2.86 1.59.62 1 .67 2.22.15 3.27l-2.15 4.29c-.3.57-.88.93-1.52.93zm-15.76-3.36h14.73l1.68-3.36H40.96z" opacity="1" data-original="#0056d3"></path><path fill="#ffffff" d="M76.89 63.44h-3.36c-3.71 0-6.72 3.01-6.72 6.72h10.08z" opacity="1" data-original="#ffffff"></path><path fill="#fbae22" d="M76.89 71.85H66.81c-.93 0-1.68-.75-1.68-1.68v-1.68c0-3.71 3.02-6.72 6.72-6.72h5.04c.93 0 1.68.75 1.68 1.68v6.72c0 .92-.75 1.68-1.68 1.68zm-8.4-3.36h6.72v-3.36h-3.36c-1.86 0-3.36 1.5-3.36 3.36z" opacity="1" data-original="#fbae22"></path><path fill="#ffffff" d="M23.11 63.44h3.36c3.71 0 6.72 3.01 6.72 6.72H23.11z" opacity="1" data-original="#ffffff"></path><path fill="#fbae22" d="M33.19 71.85H23.11c-.93 0-1.68-.75-1.68-1.68v-6.72c0-.93.75-1.68 1.68-1.68h5.04c3.71 0 6.72 3.02 6.72 6.72v1.68c.01.92-.75 1.68-1.68 1.68zm-8.4-3.36h6.72c0-1.85-1.51-3.36-3.36-3.36h-3.36z" opacity="1" data-original="#fbae22"></path></g></svg>