<svg xmlns="http://www.w3.org/2000/svg" version="1.1" xmlns:xlink="http://www.w3.org/1999/xlink" width="512" height="512" x="0" y="0" viewBox="0 0 512 512" style="enable-background:new 0 0 512 512" xml:space="preserve" class=""><g><path d="M342.019 100.1h67.44c14.24 0 25.79 11.55 25.79 25.79v39.25M460.509 462.44v19.7c0 2.98-1.34 5.79-3.65 7.66l-15.39 12.5a9.902 9.902 0 0 1-12.44 0l-15.39-12.5a9.845 9.845 0 0 1-3.65-7.66V310.45M460.509 427.44V310.45" style="stroke-width:15;stroke-linecap:round;stroke-linejoin:round;stroke-miterlimit:10;" fill="none" stroke="#5671f1" stroke-width="15" stroke-linecap="round" stroke-linejoin="round" stroke-miterlimit="10" data-original="#000000" opacity="1"></path><path d="M490.669 172.235a130.125 130.125 0 0 0-9.916-6.3c-2.986-1.709-6.812-.558-8.283 2.552-6.59 13.942-20.776 23.589-37.221 23.589-16.445 0-30.63-9.647-37.221-23.589-1.47-3.11-5.297-4.261-8.283-2.552a130.125 130.125 0 0 0-9.916 6.3c-6.741 4.713-10.652 12.512-10.652 20.737v102.452c0 8.3 6.728 15.028 15.028 15.028h102.088c8.3 0 15.028-6.728 15.028-15.028V192.972c0-8.226-3.911-16.024-10.652-20.737zM182.156 106.336V41.984l43.508 63.002c.807 1.165 1.671.594 1.671-.823l-.602-62.3M153.531 42.452h-26.918v63.884h26.918M151.546 74.394h-24.933M254.813 41.863h35.605M272.544 43.922v62.414M70.863 75.564l27.083 30.772M63.088 41.863v64.473M97.946 58.619c0 9.254-8.114 16.756-17.704 16.756-4.756 0-17.073.074-17.073.074V41.863h17.073c9.589 0 17.704 7.502 17.704 16.756z" style="stroke-width:15;stroke-linecap:round;stroke-linejoin:round;stroke-miterlimit:10;" fill="none" stroke="#5671f1" stroke-width="15" stroke-linecap="round" stroke-linejoin="round" stroke-miterlimit="10" data-original="#000000" opacity="1"></path><path d="M49.404 7.5h-22.2c-8.681 0-15.718 7.037-15.718 15.718v101.763c0 8.681 7.037 15.718 15.718 15.718h299.098c8.681 0 15.718-7.037 15.718-15.718V23.218c0-8.681-7.037-15.718-15.718-15.718H84.404M63.569 320.06l-8.89-6.12c-4.25-2.92-9.65-3.6-14.5-1.84l-19.02 6.94a15.943 15.943 0 0 0-10.48 14.98c0 8.8 7.14 15.94 15.94 15.94h25.96M309.199 349.96h25.95c8.81 0 15.95-7.14 15.95-15.94 0-6.7-4.19-12.69-10.49-14.98l-19.02-6.94a15.96 15.96 0 0 0-14.49 1.84l-8.9 6.12M83.959 472.54v21.83c0 5.59-4.54 10.13-10.13 10.13h-22.51c-5.6 0-10.13-4.54-10.13-10.13v-21.83M319.829 472.54v21.57c0 5.74-4.65 10.39-10.39 10.39h-23.06c-5.74 0-10.39-4.65-10.39-10.39v-21.57" style="stroke-width:15;stroke-linecap:round;stroke-linejoin:round;stroke-miterlimit:10;" fill="none" stroke="#5671f1" stroke-width="15" stroke-linecap="round" stroke-linejoin="round" stroke-miterlimit="10" data-original="#000000" opacity="1"></path><path d="m332.079 446.01 7.88-45.13a26.81 26.81 0 0 0-6.04-22.03l-25.3-29.57c-1.88-2.2-3.28-4.77-4.09-7.55l-13.59-46.55c-6.26-21.45-25.93-36.19-48.28-36.19h-123.55c-22.34 0-42.01 14.74-48.27 36.19l-13.6 46.55c-.81 2.78-2.2 5.35-4.08 7.55l-25.3 29.57a26.776 26.776 0 0 0-6.04 22.03l7.88 45.13" style="stroke-width:15;stroke-linecap:round;stroke-linejoin:round;stroke-miterlimit:10;" fill="none" stroke="#5671f1" stroke-width="15" stroke-linecap="round" stroke-linejoin="round" stroke-miterlimit="10" data-original="#000000" opacity="1"></path><path d="m116.199 445.75 10.99-25.62c2-4.65 6.57-7.66 11.63-7.66h84.13c5.06 0 9.64 3.01 11.63 7.66l11 25.62M57.463 340.976h246.848M24.59 416.737h42.504c6.127 0 11.093-4.967 11.093-11.093v-6.553c0-4.192-2.363-8.026-6.108-9.91l-37.096-18.66M326.791 370.521l-37.096 18.66a11.093 11.093 0 0 0-6.108 9.91v6.553c0 6.127 4.967 11.093 11.093 11.093h42.504M442.406 283.599h-14.313c-13.03 0-23.592-10.563-23.592-23.592v-17.26c0-13.03 10.563-23.592 23.592-23.592h14.313c13.03 0 23.592 10.563 23.592 23.592v17.26c0 13.03-10.563 23.592-23.592 23.592zM465.998 251.377H404.5M329.41 472.538H32.364c-7.397 0-13.393-5.996-13.393-13.393s5.996-13.393 13.393-13.393H329.41c7.397 0 13.393 5.996 13.393 13.393 0 7.396-5.997 13.393-13.393 13.393zM393.209 165.16c28.03-17.43 56.05-17.43 84.08 0" style="stroke-width:15;stroke-linecap:round;stroke-linejoin:round;stroke-miterlimit:10;" fill="none" stroke="#5671f1" stroke-width="15" stroke-linecap="round" stroke-linejoin="round" stroke-miterlimit="10" data-original="#000000" opacity="1"></path></g></svg>