<svg xmlns="http://www.w3.org/2000/svg" version="1.1" xmlns:xlink="http://www.w3.org/1999/xlink" width="512" height="512" x="0" y="0" viewBox="0 0 100 100" style="enable-background:new 0 0 512 512" xml:space="preserve" class=""><g><path fill="#fbae22" d="M56.72 38.24H34.88c-.93 0-1.68-.75-1.68-1.68s.75-1.68 1.68-1.68h20.17V23.11H23.11v13.44c0 .93-.75 1.68-1.68 1.68H11.35c-.93 0-1.68-.75-1.68-1.68v-25.2c0-.93.75-1.68 1.68-1.68h57.14c.93 0 1.68.75 1.68 1.68v13.44h13.44c.93 0 1.68.75 1.68 1.68s-.75 1.68-1.68 1.68H68.49c-.93 0-1.68-.75-1.68-1.68V13.03H13.03v21.85h6.72V21.43c0-.93.75-1.68 1.68-1.68h35.29c.93 0 1.68.75 1.68 1.68v15.13c0 .92-.75 1.68-1.68 1.68z" opacity="1" data-original="#04b46f" class=""></path><path fill="#fdb2b0" d="M88.65 25.35c0 4.71-5.04 9.52-5.04 9.52s-5.04-4.81-5.04-9.52c0-3.09 2.26-5.6 5.04-5.6 2.79 0 5.04 2.51 5.04 5.6z" opacity="1" data-original="#fdb2b0" class=""></path><path fill="#fd3e5f" d="M83.61 36.56c-.42 0-.83-.15-1.16-.46-.23-.22-5.56-5.37-5.56-10.74 0-4.02 3.02-7.28 6.72-7.28 3.71 0 6.72 3.27 6.72 7.28 0 5.37-5.34 10.52-5.56 10.74-.32.3-.74.46-1.16.46zm0-15.13c-1.85 0-3.36 1.76-3.36 3.92 0 2.49 1.9 5.31 3.36 7.05 1.46-1.74 3.36-4.56 3.36-7.05 0-2.16-1.51-3.92-3.36-3.92z" opacity="1" data-original="#fd3e5f" class=""></path><path fill="#92ebfd" d="M49.22 46.64H27.25c-3.5 0-6.64 2.17-7.87 5.45l-3 6.31h43.69l-3-6.31c-1.21-3.28-4.35-5.45-7.85-5.45z" opacity="1" data-original="#92ebfd"></path><path fill="#0ab5fd" d="M60.08 60.08H16.39c-.58 0-1.11-.3-1.42-.78-.31-.49-.34-1.1-.1-1.62l3-6.31c1.41-3.78 5.21-6.41 9.39-6.41h21.97c4.18 0 7.97 2.63 9.44 6.54l2.94 6.18c.25.52.21 1.13-.1 1.62s-.85.78-1.43.78zm-41.04-3.36h38.38l-1.86-3.91c-1.03-2.74-3.56-4.49-6.35-4.49H27.25c-2.78 0-5.32 1.75-6.29 4.36z" opacity="1" data-original="#0ab5fd"></path><path fill="#fbae22" d="M16.39 60.08c-.25 0-.51-.06-.75-.18l-3.36-1.68c-.83-.41-1.17-1.42-.75-2.25s1.42-1.16 2.25-.75l3.36 1.68c.83.42 1.17 1.43.75 2.26-.29.58-.89.92-1.5.92z" opacity="1" data-original="#fbae22" class=""></path><path fill="#97b0f9" d="M23.11 81.93H13.03c0 3.71 3.01 6.72 6.72 6.72h3.36z" opacity="1" data-original="#97b0f9" class=""></path><path fill="#0056d3" d="M23.11 90.33h-6.72c-2.78 0-5.04-2.26-5.04-5.04v-3.36c0-.93.75-1.68 1.68-1.68h10.08c.93 0 1.68.75 1.68 1.68v6.72c0 .93-.75 1.68-1.68 1.68zm-8.4-6.72v1.68c0 .93.75 1.68 1.68 1.68h5.04v-3.36z" opacity="1" data-original="#0056d3" class=""></path><path fill="#97b0f9" d="M63.44 81.93H53.36v6.72h3.36c3.71 0 6.72-3.01 6.72-6.72z" opacity="1" data-original="#97b0f9" class=""></path><path fill="#0056d3" d="M60.08 90.33h-6.72c-.93 0-1.68-.75-1.68-1.68v-6.72c0-.93.75-1.68 1.68-1.68h10.08c.93 0 1.68.75 1.68 1.68v3.36c.01 2.78-2.26 5.04-5.04 5.04zm-5.04-3.36h5.04c.93 0 1.68-.75 1.68-1.68v-1.68h-6.72z" opacity="1" data-original="#0056d3" class=""></path><path fill="#fdd6a0" d="M60.08 58.4H16.39l-5.04 8.12v15.41h53.78V66.81z" opacity="1" data-original="#fdd6a0" class=""></path><path fill="#fbae22" d="M65.13 83.61H40.15c-.92 0-1.66-.76-1.66-1.68s.74-1.68 1.66-1.68h23.29V67.28l-4.32-7.19H17.31l-4.29 6.92v13.24h13.7c.93 0 1.66.76 1.66 1.68s-.74 1.68-1.66 1.68H11.35c-.45 0-.87-.17-1.19-.49s-.49-.74-.49-1.19V66.52c0-.32.08-.62.25-.89l5.04-8.12c.3-.49.86-.79 1.43-.79h43.69c.59 0 1.14.32 1.44.82l5.04 8.38c.15.27.24.57.24.87v15.13c0 .45-.17.87-.49 1.19-.31.33-.73.5-1.18.5zm-31.68 0c-.94 0-1.7-.76-1.7-1.68s.76-1.68 1.7-1.68c.93 0 1.66.76 1.66 1.68s-.74 1.68-1.66 1.68z" opacity="1" data-original="#fbae22" class=""></path><path fill="#ffffff" d="M47.28 66.81H29.19c-1.25 0-2.06 1.32-1.5 2.43l2.14 4.29h16.81l2.15-4.29c.55-1.12-.26-2.43-1.51-2.43z" opacity="1" data-original="#ffffff" class=""></path><path fill="#0056d3" d="M46.64 75.21H29.83c-.64 0-1.22-.36-1.5-.93l-2.15-4.29c-.53-1.05-.47-2.27.15-3.27s1.69-1.59 2.86-1.59h18.09c1.17 0 2.24.6 2.86 1.59.62 1 .67 2.22.15 3.27l-2.15 4.29c-.28.57-.86.93-1.5.93zm-15.77-3.36H45.6l1.68-3.36H29.19z" opacity="1" data-original="#0056d3" class=""></path><path fill="#ffffff" d="M11.35 66.81h3.36c3.71 0 6.72 3.01 6.72 6.72H11.35z" opacity="1" data-original="#ffffff" class=""></path><path fill="#fbae22" d="M21.43 75.21H11.35c-.93 0-1.68-.75-1.68-1.68v-6.72c0-.93.75-1.68 1.68-1.68h5.04c3.71 0 6.72 3.01 6.72 6.72v1.68c0 .93-.75 1.68-1.68 1.68zm-8.4-3.36h6.72c0-1.85-1.51-3.36-3.36-3.36h-3.36z" opacity="1" data-original="#fbae22" class=""></path><path fill="#ffffff" d="M66.28 51.15c6.5 0 11.76 5.27 11.76 11.76s-5.27 11.76-11.76 11.76c-6.5 0-11.76-5.27-11.76-11.76s5.26-11.76 11.76-11.76z" opacity="1" data-original="#ffffff" class=""></path><path fill="#0ab5fd" d="M66.28 76.36c-7.41 0-13.44-6.03-13.44-13.44s6.03-13.44 13.44-13.44 13.44 6.03 13.44 13.44-6.03 13.44-13.44 13.44zm0-23.53c-5.56 0-10.08 4.52-10.08 10.08C56.2 68.48 60.72 73 66.28 73s10.08-4.52 10.08-10.08-4.52-10.09-10.08-10.09z" opacity="1" data-original="#0ab5fd"></path><path fill="#0ab5fd" d="M79.35 77.67c-.43 0-.86-.16-1.19-.49l-4.75-4.75c-.66-.66-.66-1.72 0-2.38s1.72-.66 2.38 0l4.75 4.75a1.678 1.678 0 0 1-1.19 2.87z" opacity="1" data-original="#0ab5fd"></path><path fill="#97b0f9" d="m81.73 73.61-4.75 4.75 5.94 5.94a3.362 3.362 0 0 0 4.75 0 3.362 3.362 0 0 0 0-4.75z" opacity="1" data-original="#97b0f9" class=""></path><path fill="#0056d3" d="M85.29 86.97a5.02 5.02 0 0 1-3.56-1.47l-5.94-5.94c-.32-.32-.49-.74-.49-1.19s.18-.87.49-1.19l4.75-4.75a1.688 1.688 0 0 1 2.38 0l5.94 5.94a5.04 5.04 0 0 1 0 7.13c-.99.98-2.28 1.47-3.57 1.47zm-5.94-8.6 4.75 4.75c.64.63 1.74.63 2.38 0 .32-.32.49-.74.49-1.19s-.18-.87-.49-1.19l-4.75-4.75z" opacity="1" data-original="#0056d3" class=""></path></g></svg>