<svg xmlns="http://www.w3.org/2000/svg" version="1.1" xmlns:xlink="http://www.w3.org/1999/xlink" width="512" height="512" x="0" y="0" viewBox="0 0 24 24" style="enable-background:new 0 0 512 512" xml:space="preserve" class=""><g><path d="M24 10v9c0 2.76-2.24 5-5 5H5c-2.76 0-5-2.24-5-5V8c0-2.76 2.24-5 5-5h8c.55 0 1 .45 1 1s-.45 1-1 1H5c-1.15 0-2.14.65-2.65 1.59l7.53 7.53a3 3 0 0 0 4.24 0l3.82-3.82a.996.996 0 1 1 1.41 1.41l-3.82 3.82a5.022 5.022 0 0 1-7.08 0L2 9.07V19c0 1.65 1.35 3 3 3h14c1.65 0 3-1.35 3-3v-9c0-.55.45-1 1-1s1 .45 1 1Zm-8-6c0-2.21 1.79-4 4-4s4 1.79 4 4-1.79 4-4 4-4-1.79-4-4Zm2 0c0 1.1.9 2 2 2s2-.9 2-2-.9-2-2-2-2 .9-2 2Z" fill="#5671f1" opacity="1" data-original="#000000" class=""></path></g></svg>