<svg xmlns="http://www.w3.org/2000/svg" version="1.1" xmlns:xlink="http://www.w3.org/1999/xlink" width="512" height="512" x="0" y="0" viewBox="0 0 64 64" style="enable-background:new 0 0 512 512" xml:space="preserve" class=""><g><path fill="#ee7231" d="M29 8c0 6.2 6.6 9.9 11.9 7H44v-3.1C46.9 6.6 43.2 0 37 0c-4.4 0-8 3.6-8 8z" opacity="1" data-original="#ee7231"></path><path fill="#f8cf6d" d="m53.5 24.1-4.5-2V14c0-.6-.4-1-1-1h-1c-.6 0-1 .4-1 1v14c0 .6.4 1 1 1h1c.6 0 1-.4 1-1v-3.7l3 1.4V33h-5c-.6 0-1 .4-1 1s.4 1 1 1h6c.6 0 1-.4 1-1v-9c0-.4-.2-.7-.5-.9z" opacity="1" data-original="#f8cf6d"></path><path fill="#ee7231" d="M30 33h12v2H30z" opacity="1" data-original="#ee7231"></path><path fill="#16dba2" d="M31 48v5H6.7c-1.5 0-2.8-1.2-3-2.7C.8 21.7 1 24.5 1 23.1c0-.9.7-2.1 2.1-2.1 1.1 0 2 .8 2.1 1.9L7.5 48z" opacity="1" data-original="#2f79f0" class=""></path><circle cx="19" cy="13" r="7" fill="#88b8f9" opacity="1" data-original="#88b8f9" class=""></circle><path fill="#16dba2" d="M28 35h34c.6 0 1 .4 1 1v3c0 .6-.4 1-1 1H28c-.6 0-1-.4-1-1v-3c0-.6.4-1 1-1z" opacity="1" data-original="#2f79f0" class=""></path><path fill="#0c3798" d="M15 53h4v7h-4z" opacity="1" data-original="#0c3798" class=""></path><path fill="#16dba2" d="M28 62h-8v-1c0-.6-.4-1-1-1h-4c-.6 0-1 .4-1 1v1H6c-.6 0-1 .4-1 1s.4 1 1 1h22c.6 0 1-.4 1-1s-.4-1-1-1z" opacity="1" data-original="#2f79f0" class=""></path><path fill="#88b8f9" d="m39.8 60-6-16c-.4-1.2-1.5-2-2.8-2h-8.8l.2-5.1c.8.6 1.8.7 2.7.3l10-5c1.2-.6 1.7-2.1 1.1-3.4s-2.1-1.7-3.4-1.1L24.5 32l-1.8-1.7.1-1.6c.1-3.6-2.8-6.5-6.3-6.6-3.1-.1-5.7 2-6.4 5l-3 14.4c-.6 2.9 1.3 5.8 4.2 6.4.8.1-.3.1 17.6.1l5.3 14c.7 1.5 2.5 2.1 4 1.4 1.3-.6 1.9-2 1.6-3.4z" opacity="1" data-original="#88b8f9" class=""></path><path fill="#0c3798" d="M36 64h-4l-1-24h6z" opacity="1" data-original="#0c3798" class=""></path><path fill="#16dba2" d="M24 17h-2.3L20 12.8V6c0-.6-.4-1-1-1s-1 .4-1 1v7c-.1.4-.1.2 2 5.4.2.4.6.7 1 .6h3c.6 0 1-.4 1-1s-.4-1-1-1z" opacity="1" data-original="#2f79f0" class=""></path><circle cx="19" cy="13" r="3" fill="#0c3798" opacity="1" data-original="#0c3798" class=""></circle><path fill="#f8cf6d" d="M1 2v6c0 1.1.9 2 2 2h10l1.5 1.5c.2.2.5.1.5-.2V2c0-1.1-.9-2-2-2H3C1.9 0 1 .9 1 2z" opacity="1" data-original="#f8cf6d"></path><g fill="#fffeff"><circle cx="8" cy="5" r="1" fill="#fffeff" opacity="1" data-original="#fffeff"></circle><circle cx="4" cy="5" r="1" fill="#fffeff" opacity="1" data-original="#fffeff"></circle><circle cx="12" cy="5" r="1" fill="#fffeff" opacity="1" data-original="#fffeff"></circle></g><path fill="#0c3798" d="M58 64h-4l-1-24h6z" opacity="1" data-original="#0c3798" class=""></path><path fill="#fffeff" d="M37 10c-.6 0-1-.4-1-1 0-1.5.6-2.5 1.6-3.2.4-.3.5-1 .2-1.4-.6-.8-1.8-.4-1.8.6 0 .6-.4 1-1 1-1.9 0-1-4 2-4 2.9 0 4.1 3.7 1.8 5.4-.5.3-.8.8-.8 1.3V9c0 .6-.4 1-1 1zM37 14c-.6 0-1-.4-1-1s.4-1 1-1c.3 0 1 .2 1 1 0 .6-.4 1-1 1z" opacity="1" data-original="#fffeff"></path></g></svg>