<svg xmlns="http://www.w3.org/2000/svg" version="1.1" xmlns:xlink="http://www.w3.org/1999/xlink" width="512" height="512" x="0" y="0" viewBox="0 0 64 64" style="enable-background:new 0 0 512 512" xml:space="preserve" class=""><g transform="matrix(1.06,0,0,1.06,-1.9200000000000017,-1.9200000000000017)"><g data-name="Layer 13"><path fill="#4c4c4c" d="M19 52v7a3 3 0 0 1-3 3h-4a3 3 0 0 1-3-3v-7zM45 52v7a3 3 0 0 0 3 3h4a3 3 0 0 0 3-3v-7z" opacity="1" data-original="#4c4c4c"></path><path fill="#cc4a5a" d="M57 38a13.323 13.323 0 0 1 5 10.4V50a4 4 0 0 1-4 4H6a4 4 0 0 1-4-4v-1.6A13.323 13.323 0 0 1 7 38z" opacity="1" data-original="#cc4a5a"></path><path fill="#e26177" d="M57 38H7c-.012.009-.021.019-.033.029A20.991 20.991 0 0 0 5 47.105v2.4c0 .827.448 1.5 1 1.5h52c.551 0 1-.673 1-1.5v-2.4a20.991 20.991 0 0 0-1.967-9.076c-.012-.01-.021-.02-.033-.029z" opacity="1" data-original="#e26177"></path><path fill="#798499" d="M30 36v-4a3.659 3.659 0 0 0-2.942-3.588L25 28v-2h-8v2l-2.058.412A3.659 3.659 0 0 0 12 32v4z" opacity="1" data-original="#798499"></path><path fill="#eaa992" d="m25 16 .644 1.932A6.929 6.929 0 0 1 26 20.126a6.939 6.939 0 0 1-2.032 4.906L23 26h-3l-1-9z" opacity="1" data-original="#eaa992"></path><path fill="#a5badb" d="M34 33a5 5 0 0 1 5-5h4v7h-9z" opacity="1" data-original="#a5badb"></path><path fill="#a58066" d="m41 28-1.5-1.877A11.4 11.4 0 0 1 37 19a5 5 0 0 1 5-5 5 5 0 0 1 5 5v9z" opacity="1" data-original="#a58066" class=""></path><path fill="#c681a0" d="m25 4 .488-.975A1.854 1.854 0 0 1 27.146 2 1.854 1.854 0 0 1 29 3.854a4.293 4.293 0 0 1-1.717 3.434L25 9l-2.283-1.712A4.293 4.293 0 0 1 21 3.854 1.854 1.854 0 0 1 22.854 2a1.854 1.854 0 0 1 1.658 1.025zM39 4l.488-.975A1.854 1.854 0 0 1 41.146 2 1.854 1.854 0 0 1 43 3.854a4.293 4.293 0 0 1-1.717 3.434L39 9l-2.283-1.712A4.293 4.293 0 0 1 35 3.854 1.854 1.854 0 0 1 36.854 2a1.854 1.854 0 0 1 1.658 1.025z" opacity="1" data-original="#c681a0" class=""></path><path fill="#cc4a5a" d="M12 42h40v4H12z" opacity="1" data-original="#cc4a5a"></path><path fill="#fc9ab4" d="M9 38a7.954 7.954 0 0 1 7.385-5h31.23A7.954 7.954 0 0 1 55 38z" opacity="1" data-original="#fc9ab4"></path><path fill="#aecefc" d="M27 46h10v4H27z" opacity="1" data-original="#aecefc"></path><path fill="#ffd98c" d="M7 38a13.323 13.323 0 0 0-5 10.4V50h5z" opacity="1" data-original="#ffd98c"></path><path fill="#f79b31" d="M7 46v-8a13.305 13.305 0 0 0-4.76 8z" opacity="1" data-original="#f79b31" class=""></path><path fill="#ffd98c" d="M57 38a13.323 13.323 0 0 1 5 10.4V50h-5z" opacity="1" data-original="#ffd98c"></path><path fill="#f79b31" d="M57 46v-8a13.305 13.305 0 0 1 4.76 8z" opacity="1" data-original="#f79b31" class=""></path><path fill="#a58066" d="M18 26v-2l-2.1-2.8a4.5 4.5 0 0 1-.9-2.7 4.5 4.5 0 0 1 4.5-4.5H23l3-1v1.838A4.387 4.387 0 0 1 23 19h-2v2l1 2v3z" opacity="1" data-original="#a58066" class=""></path><path fill="#d7e0ef" d="M45 18a3.608 3.608 0 0 1 3.06 1.7A13.416 13.416 0 0 0 59.433 26H60a17.02 17.02 0 0 1-14.434 8H37a13.658 13.658 0 0 0 4-9.657V22a4 4 0 0 1 4-4z" opacity="1" data-original="#d7e0ef" class=""></path><path fill="#ffffff" d="M45.566 34a17.013 17.013 0 0 0 10.207-3.406 19.26 19.26 0 0 1-8.751-9.459A1.76 1.76 0 0 0 45.489 20c-1.238 0-2.245 1.345-2.245 3v3.515A30.819 30.819 0 0 1 42.335 34z" opacity="1" data-original="#ffffff"></path></g></g></svg>