<svg xmlns="http://www.w3.org/2000/svg" version="1.1" xmlns:xlink="http://www.w3.org/1999/xlink" width="512" height="512" x="0" y="0" viewBox="0 0 512 512" style="enable-background:new 0 0 512 512" xml:space="preserve" class=""><g transform="matrix(1.0899999999999994,0,0,1.0899999999999994,-23.03999999999985,-23.03999999999985)"><path fill="#bb5e1f" d="M56 448v30a10 10 0 0 0 10 10h36a10 10 0 0 0 10-10v-30zM272 478a10 10 0 0 0 10 10h36a10 10 0 0 0 10-10v-30h-56z" opacity="1" data-original="#bb5e1f"></path><path fill="#fa7d29" d="m72 344-24 48v54a10 10 0 0 0 10 10h268a10 10 0 0 0 10-10v-54l-24-48-8-8H80z" opacity="1" data-original="#fa7d29"></path><path fill="#fee5d4" d="M292.867 284.978A20 20 0 0 0 274.14 272H109.86a20 20 0 0 0-18.727 12.977L72 344h240z" opacity="1" data-original="#fee5d4"></path><path fill="#fac850" d="M317.053 354.105 264 392H120l-53.053-37.895L48 392l32 16h16l8 16h176l8-16h16l32-16z" opacity="1" data-original="#fac850"></path><rect width="64" height="48" x="160" y="376" fill="#fee5d4" rx="24" opacity="1" data-original="#fee5d4"></rect><path fill="#bb5e1f" d="m104 424 16 32h144l16-32z" opacity="1" data-original="#bb5e1f"></path><path fill="#fa7d29" d="M456 312h-80v16h16v40h16v-40h16v40h16v-40h16z" opacity="1" data-original="#fa7d29"></path><rect width="96" height="128" x="368" y="360" fill="#fac850" rx="10" opacity="1" data-original="#fac850"></rect><path fill="#fa7d29" d="m464 456-96-32v-32l96 32z" opacity="1" data-original="#fa7d29"></path><path fill="#25b1fa" d="M382 64h-14V24h-16v40H160V24h-16v40h-14a10 10 0 0 0-10 10v148a10 10 0 0 0 10 10h252a10 10 0 0 0 10-10V74a10 10 0 0 0-10-10z" opacity="1" data-original="#25b1fa"></path><g fill="#fafeff"><path d="m320.028 192 35.519-15.68a10 10 0 0 0 0-16.64l-30.48-12.32a20 20 0 0 0-11.095-3.36h-18.69L232 104h-24l24 48-32 8-32-24h-16l16 56zM144 88h16v16h-16zM352 88h16v16h-16z" fill="#fafeff" opacity="1" data-original="#fafeff"></path></g></g></svg>