<svg xmlns="http://www.w3.org/2000/svg" version="1.1" xmlns:xlink="http://www.w3.org/1999/xlink" width="512" height="512" x="0" y="0" viewBox="0 0 500 500" style="enable-background:new 0 0 512 512" xml:space="preserve" class=""><g transform="matrix(1.0999999999999994,0,0,1.0999999999999994,-25.000047492980855,-24.999952697753713)"><path fill-rule="evenodd" d="M108.183 214.903a6.821 6.821 0 0 1-6.819 6.819H81.31c-3.765 0-6.819-3.055-6.819-6.819s3.055-6.819 6.819-6.819h20.053a6.822 6.822 0 0 1 6.82 6.819zm35.944 10.367v-41.461a3.55 3.55 0 0 0-3.548-3.553H42.095a3.55 3.55 0 0 0-3.547 3.553v41.461c0 24.821 20.188 45.021 45.009 45.021h15.55c24.832 0 45.02-20.2 45.02-45.021zm-28.515 189.324-24.281 28.808-24.281-28.808v-34.636l13.557-10.795c3.308-2.626 3.44-7.577.34-10.39L67.05 346.178v-3.354l13.897-12.589c3.113-2.819 2.952-7.783-.34-10.39l-13.557-10.79v-27.5a58.635 58.635 0 0 0 16.506 2.381h15.55c5.74 0 11.27-.844 16.506-2.381zm269.344-277.002c0 36.249-29.494 65.754-65.755 65.754-36.249 0-65.748-29.506-65.748-65.754 0-36.26 29.5-65.754 65.748-65.754 36.261 0 65.755 29.494 65.755 65.754zm-244.377 29.019H98.156V50.582c0-5.395 4.38-9.78 9.775-9.78h194.683c5.383 0 9.769 4.386 9.769 9.78v7.91c-40.594 3.465-72.568 37.615-72.568 79.1 0 43.772 35.615 79.399 79.387 79.399 43.784 0 79.399-35.627 79.399-79.399 0-41.485-31.98-75.634-72.579-79.1v-7.91c0-12.918-10.502-23.425-23.407-23.425H107.931c-12.918 0-23.419 10.507-23.419 23.425v116.029H42.095c-9.481 0-17.192 7.71-17.192 17.198v41.461c0 21.332 11.44 40.031 28.503 50.298v36.771c0 2.082.956 4.046 2.574 5.336l9.857 7.84-10.185 9.229a6.862 6.862 0 0 0-2.246 5.06v9.393c0 1.929.821 3.764 2.246 5.06l10.185 9.229-9.857 7.839a6.871 6.871 0 0 0-2.574 5.342v40.406c0 1.607.575 3.16 1.612 4.403l27.137 32.203c4.801 5.698 13.566 5.695 18.365 0l27.137-32.203a6.86 6.86 0 0 0 1.601-4.403V275.568c17.069-10.267 28.515-28.966 28.515-50.298v-41.461c-.002-9.488-7.718-17.198-17.194-17.198zm173.803-33.851a6.823 6.823 0 0 0-.633 8.924l15.55 20.734a6.826 6.826 0 0 0 5.465 2.727c5.458 0 8.851-6.376 5.447-10.912l-11.997-16.008 26.926-26.92a6.853 6.853 0 0 0 0-9.652c-2.668-2.656-6.99-2.656-9.652 0zm11.639 55.206a6.813 6.813 0 0 0-6.819-6.819 6.822 6.822 0 0 0-6.819 6.819v6.456a6.821 6.821 0 0 0 6.819 6.819 6.814 6.814 0 0 0 6.819-6.819zm36.736-50.374a6.821 6.821 0 0 0 6.819 6.819h6.462a6.821 6.821 0 0 0 6.819-6.819 6.819 6.819 0 0 0-6.819-6.825h-6.462a6.819 6.819 0 0 0-6.819 6.825zm-87.11 0a6.819 6.819 0 0 0-6.819-6.825h-6.462a6.819 6.819 0 0 0-6.819 6.825 6.821 6.821 0 0 0 6.819 6.819h6.462a6.822 6.822 0 0 0 6.819-6.819zm43.555-63.655a6.822 6.822 0 0 0-6.819 6.819v6.456a6.821 6.821 0 0 0 6.819 6.819 6.814 6.814 0 0 0 6.819-6.819v-6.456a6.814 6.814 0 0 0-6.819-6.819zm85.304 315.625c-6.116 0-11.088-4.978-11.088-11.088s4.972-11.082 11.088-11.082c6.11 0 11.082 4.972 11.082 11.082s-4.973 11.088-11.082 11.088zm0-35.815c13.633 0 24.727 11.094 24.727 24.727s-11.094 24.727-24.727 24.727-24.733-11.094-24.733-24.727 11.1-24.727 24.733-24.727zM233.91 389.562c-6.11 0-11.088-4.978-11.088-11.088s4.978-11.082 11.088-11.082 11.088 4.972 11.088 11.082-4.978 11.088-11.088 11.088zm0-35.815c13.633 0 24.727 11.094 24.727 24.727s-11.094 24.727-24.727 24.727-24.727-11.094-24.727-24.727 11.094-24.727 24.727-24.727zm215.851 53.84c0 3.377-2.427 6.151-5.77 6.602l-73.377 9.95-6.719-20.681c-2.768-8.52-10.349-14.032-19.309-14.032H293.83c-8.96 0-16.547 5.512-19.309 14.032l-6.72 20.681-73.377-9.95c-3.354-.451-5.77-3.225-5.77-6.602v-57.68a6.658 6.658 0 0 1 6.655-6.655H443.1c3.665 0 6.661 2.979 6.661 6.655zm-18.148 49.694c0 1.038-.879 1.918-1.917 1.918h-23.994c-1.038 0-1.918-.88-1.918-1.918V433.41l27.829-3.776zm-112.411-26.164-37.673-5.113 5.957-18.335c.932-2.838 3.36-4.603 6.344-4.603h50.755c2.985 0 5.412 1.765 6.333 4.603l5.957 18.335zm-84.57 26.164c0 1.038-.885 1.918-1.929 1.918H208.72c-1.05 0-1.923-.88-1.923-1.918v-27.647l27.835 3.776zm-57.675-139.102c0-3.665 2.996-6.661 6.661-6.661h22.962l-7.394 18.089h-22.229zm157.168 11.428c0-17.086 13.82-30.884 30.813-30.884 17.004 0 30.825 13.798 30.825 30.884zm-92.809-66.974c2.381-5.811 7.552-9.288 13.838-9.288H383.25c6.292 0 11.469 3.477 13.844 9.288l27.389 66.974h-15.075c0-24.603-19.942-44.528-44.469-44.528-24.516 0-44.452 19.926-44.452 44.528H213.921zm213.47 48.885c3.677 0 6.673 2.996 6.673 6.661v11.422l-22.27-.094-7.353-17.99h22.95zm0-13.639c11.2 0 20.312 9.112 20.312 20.3v13.058c0 6.62-5.395 12.014-12.015 12.014l-.809-.012a20.27 20.27 0 0 1 1.126 6.667v57.68c0 10.279-7.394 18.746-17.567 20.118l-.575.082v29.494c0 8.579-6.983 15.562-15.562 15.562h-23.994c-8.573 0-15.562-6.984-15.562-15.562v-22.018l-70.938 9.552-70.932-9.552v22.018c0 8.579-6.983 15.562-15.568 15.562H208.72c-8.59 0-15.562-6.984-15.562-15.562v-29.494l-.575-.082c-10.185-1.372-17.573-9.839-17.573-20.118v-57.68c0-2.334.405-4.574 1.132-6.655h-.821c-6.62 0-12.003-5.394-12.003-12.014v-13.058c0-11.188 9.106-20.3 20.3-20.3h28.55l16.524-40.412c4.486-10.959 14.624-17.761 26.462-17.761H383.25c11.85 0 21.988 6.802 26.474 17.761l16.524 40.412z" clip-rule="evenodd" fill="#5671f1" opacity="1" data-original="#000000" class=""></path></g></svg>