<svg xmlns="http://www.w3.org/2000/svg" version="1.1" xmlns:xlink="http://www.w3.org/1999/xlink" width="512" height="512" x="0" y="0" viewBox="0 0 60 60" style="enable-background:new 0 0 512 512" xml:space="preserve" class=""><g><g fill="#000" fill-rule="nonzero"><path d="m54.375 12.219-4.3 3.441-.367-.367a1 1 0 0 0-1.414 1.414l1 1a1 1 0 0 0 1.332.074l5-4a1 1 0 0 0-1.25-1.562zM9 39a4 4 0 1 0 0-8 4 4 0 0 0 0 8zm0-6a2 2 0 1 1 0 4 2 2 0 0 1 0-4zM14.633 22.774l11-9a1 1 0 1 0-1.266-1.548l-11 9a1 1 0 1 0 1.266 1.548z" fill="#5671f1" opacity="1" data-original="#000000" class=""></path><path d="M56 4h-5.184A3 3 0 0 0 48 2h-.539a3.995 3.995 0 0 0-6.922 0H40a2.994 2.994 0 0 0-2.818 2H32a4 4 0 0 0-4 4H15.6a5.023 5.023 0 0 0-4.574 2.974L7.9 18H4a3 3 0 0 0-3 3 2.923 2.923 0 0 0 .873 2.106A2.937 2.937 0 0 0 4 24h1.238l-.919 2.069A4.991 4.991 0 0 0 0 31v16a5.009 5.009 0 0 0 4 4.9V55a5.006 5.006 0 0 0 5 5h4a5.006 5.006 0 0 0 5-5v-3h10a4 4 0 0 0 4 4h24a4 4 0 0 0 4-4V8a4 4 0 0 0-4-4zm-16.693.287A.959.959 0 0 1 40 4h1.18a1 1 0 0 0 .946-.676 1.988 1.988 0 0 1 3.748 0A1 1 0 0 0 46.82 4H48a1 1 0 0 1 1 1c0 .27-.11.528-.307.713A.959.959 0 0 1 48 6h-8a1 1 0 0 1-1-1c0-.27.11-.528.307-.713zM28 38h-9v-1a1 1 0 0 1 1-1h8zm-9 2h9v2h-9zm-6.146-28.211A3.014 3.014 0 0 1 15.6 10H28v16H6.539c1.097-2.47 4.274-9.635 6.315-14.211zM4 22a.971.971 0 0 1-.712-.307A.957.957 0 0 1 3 21a1 1 0 0 1 1-1h3.016l-.889 2zm1 6h23v6h-8a3 3 0 0 0-3 3v5H2V31a3 3 0 0 1 3-3zm11 27a3 3 0 0 1-3 3H9a3 3 0 0 1-3-3v-3h10zM5 50a3 3 0 0 1-3-3v-3h26v2h-3a1 1 0 0 0 0 2h3v2zm53 2a2 2 0 0 1-2 2H32a2 2 0 0 1-2-2V8a2 2 0 0 1 2-2h5.184A3 3 0 0 0 40 8h8a2.994 2.994 0 0 0 2.818-2H56a2 2 0 0 1 2 2z" fill="#5671f1" opacity="1" data-original="#000000" class=""></path><path d="M45 12H33a1 1 0 0 0 0 2h12a1 1 0 0 0 0-2zM33 18h6a1 1 0 0 0 0-2h-6a1 1 0 0 0 0 2zM54.375 22.219l-4.3 3.441-.367-.367a1 1 0 0 0-1.414 1.414l1 1a1 1 0 0 0 1.332.074l5-4a1 1 0 0 0-1.25-1.562zM45 22H33a1 1 0 0 0 0 2h12a1 1 0 0 0 0-2zM33 28h6a1 1 0 0 0 0-2h-6a1 1 0 0 0 0 2zM54.375 32.219l-4.3 3.441-.367-.367a1 1 0 0 0-1.414 1.414l1 1a1 1 0 0 0 1.332.074l5-4a1 1 0 1 0-1.25-1.562zM45 32H33a1 1 0 0 0 0 2h12a1 1 0 0 0 0-2zM33 38h6a1 1 0 0 0 0-2h-6a1 1 0 0 0 0 2zM54.375 42.219l-4.3 3.441-.367-.367a1 1 0 0 0-1.414 1.414l1 1a1 1 0 0 0 1.332.074l5-4a1 1 0 1 0-1.25-1.562zM45 42H33a1 1 0 0 0 0 2h12a1 1 0 0 0 0-2zM39 46h-6a1 1 0 0 0 0 2h6a1 1 0 0 0 0-2z" fill="#5671f1" opacity="1" data-original="#000000" class=""></path></g></g></svg>