<svg xmlns="http://www.w3.org/2000/svg" version="1.1" xmlns:xlink="http://www.w3.org/1999/xlink" width="512" height="512" x="0" y="0" viewBox="0 0 64 64" style="enable-background:new 0 0 512 512" xml:space="preserve" class=""><g><path fill="#a0faf0" d="M59 1H17a4 4 0 0 0-4 4v48h50V5a4 4 0 0 0-4-4z" opacity="1" data-original="#a0faf0" class=""></path><path fill="#1ee0d7" d="M59 0H17a5.006 5.006 0 0 0-5 5v54a5.006 5.006 0 0 0 5 5h42a5.006 5.006 0 0 0 5-5V5a5.006 5.006 0 0 0-5-5zM14 52V5a3 3 0 0 1 3-3h42a3 3 0 0 1 3 3v47z" opacity="1" data-original="#1ee0d7" class=""></path><path fill="#00cabd" d="M50 59h-4a1 1 0 0 1 0-2h4a1 1 0 0 1 0 2zM30 59h-4a1 1 0 0 1 0-2h4a1 1 0 0 1 0 2z" opacity="1" data-original="#00cabd"></path><path fill="#465064" d="M42 6h-8a1 1 0 0 1 0-2h8a1 1 0 0 1 0 2z" opacity="1" data-original="#465064"></path><circle cx="46" cy="5" r="1" fill="#465064" opacity="1" data-original="#465064"></circle><rect width="8" height="4" x="34" y="56" fill="#00cabd" rx="2" opacity="1" data-original="#00cabd"></rect><circle cx="13" cy="18" r="12" fill="#ffffff" opacity="1" data-original="#ffffff" class=""></circle><path fill="#ef3678" d="M13 31a13 13 0 1 1 13-13 13.015 13.015 0 0 1-13 13zm0-24a11 11 0 1 0 11 11A11.013 11.013 0 0 0 13 7z" opacity="1" data-original="#ef3678"></path><g fill="#465064"><circle cx="13" cy="9" r="1" fill="#465064" opacity="1" data-original="#465064"></circle><circle cx="13" cy="27" r="1" fill="#465064" opacity="1" data-original="#465064"></circle><circle cx="5.206" cy="13.5" r="1" fill="#465064" opacity="1" data-original="#465064"></circle><circle cx="20.794" cy="22.5" r="1" fill="#465064" opacity="1" data-original="#465064"></circle><circle cx="20.794" cy="13.5" r="1" fill="#465064" opacity="1" data-original="#465064"></circle><circle cx="5.206" cy="22.5" r="1" fill="#465064" opacity="1" data-original="#465064"></circle><circle cx="4" cy="18" r="1" fill="#465064" opacity="1" data-original="#465064"></circle><circle cx="22" cy="18" r="1" fill="#465064" opacity="1" data-original="#465064"></circle><circle cx="8.5" cy="25.794" r="1" fill="#465064" opacity="1" data-original="#465064"></circle><circle cx="17.5" cy="10.206" r="1" fill="#465064" opacity="1" data-original="#465064"></circle><circle cx="8.5" cy="10.206" r="1" fill="#465064" opacity="1" data-original="#465064"></circle><circle cx="17.5" cy="25.794" r="1" fill="#465064" opacity="1" data-original="#465064"></circle></g><path fill="#ef3678" d="M16 19h-3a1 1 0 0 1-1-1v-5a1 1 0 0 1 2 0v4h2a1 1 0 0 1 0 2z" opacity="1" data-original="#ef3678"></path><path fill="#465064" d="M52 13h-6a1 1 0 0 1 0-2h6a1 1 0 0 1 0 2zM58 21H46a1 1 0 0 1 0-2h12a1 1 0 0 1 0 2zM58 17H46a1 1 0 0 1 0-2h12a1 1 0 0 1 0 2zM32.25 45H24.5v3a2 2 0 0 0 2 2h3.75a2 2 0 0 0 2-2zM51.5 45h-7.75v3a2 2 0 0 0 2 2h3.75a2 2 0 0 0 2-2z" opacity="1" data-original="#465064"></path><path fill="#ef3678" d="M53 30h-6v2h6a1 1 0 0 0 0-2zM23 30a1 1 0 0 0 0 2h10v-2z" opacity="1" data-original="#ef3678"></path><path fill="#ffffff" d="M28.506 28.488 25.25 35h25.5l-3.256-6.512A4.5 4.5 0 0 0 43.469 26H32.531a4.5 4.5 0 0 0-4.025 2.488z" opacity="1" data-original="#ffffff" class=""></path><path fill="#ff74b1" d="M52.646 34.657a76.038 76.038 0 0 0-1.06-.222l-3.2-6.394A5.473 5.473 0 0 0 43.469 25H32.531a5.473 5.473 0 0 0-4.92 3.041l-3.2 6.394c-.385.078-.742.153-1.06.222A2.974 2.974 0 0 0 21 37.586V43a3 3 0 0 0 3 3h28a3 3 0 0 0 3-3v-5.414a2.974 2.974 0 0 0-2.354-2.929zm-25.769-.675 2.523-5.047A3.483 3.483 0 0 1 32.531 27h10.938a3.483 3.483 0 0 1 3.131 1.935l2.523 5.047A68.75 68.75 0 0 0 38 33a68.75 68.75 0 0 0-11.123.982z" opacity="1" data-original="#ff74b1"></path><path fill="#ef3678" d="M52.646 36.657A71.892 71.892 0 0 0 38 35a71.892 71.892 0 0 0-14.646 1.657A2.974 2.974 0 0 0 21 39.586V43a3 3 0 0 0 3 3h28a3 3 0 0 0 3-3v-3.414a2.974 2.974 0 0 0-2.354-2.929z" opacity="1" data-original="#ef3678"></path><path fill="#ffffff" d="M34 37h8v4h-8z" opacity="1" data-original="#ffffff" class=""></path><circle cx="49" cy="39.5" r="2" fill="#ffdc28" opacity="1" data-original="#ffdc28" class=""></circle><circle cx="27" cy="39.5" r="2" fill="#ffdc28" opacity="1" data-original="#ffdc28" class=""></circle></g></svg>