<svg xmlns="http://www.w3.org/2000/svg" version="1.1" xmlns:xlink="http://www.w3.org/1999/xlink" width="512" height="512" x="0" y="0" viewBox="0 0 43.349 43.349" style="enable-background:new 0 0 512 512" xml:space="preserve" fill-rule="evenodd" class=""><g><path d="M18.792 40.467C8.426 40.467 0 32.04 0 21.675S8.426 2.883 18.792 2.883c4.753 0 9.214 1.726 12.689 4.912a34.152 34.152 0 0 0-3.344 2.26 14.836 14.836 0 0 0-9.345-3.294c-8.215 0-14.914 6.699-14.914 14.914s6.699 14.913 14.914 14.913c11.43 0 18.216-12.218 13.3-21.717a51.384 51.384 0 0 1 3.002-2.584c1.645 2.84 2.49 6.061 2.49 9.387 0 10.366-8.426 18.793-18.792 18.793z" fill="#f98e57" opacity="1" data-original="#000000" class=""></path><path d="M19.286 31.335a.502.502 0 0 1-.459-.317c-.035-.07-3.067-7.898-7.756-10.86-.917-.564-1.622-1.163-1.34-2.503.282-1.304 1.163-2.045 2.75-2.397 2.82-.6 5.853 3.772 6.98 5.57 3.95-5.746 11.847-14.772 23.341-15.83.554-.065.76.757.247.987-.176.07-16.606 7.58-23.27 25.068a.563.563 0 0 1-.493.282z" fill="#f98e57" opacity="1" data-original="#000000" class=""></path></g></svg>