<svg xmlns="http://www.w3.org/2000/svg" version="1.1" xmlns:xlink="http://www.w3.org/1999/xlink" width="512" height="512" x="0" y="0" viewBox="0 0 512 512" style="enable-background:new 0 0 512 512" xml:space="preserve" class=""><g><path d="M256.023 220.559h-.046a55.27 55.27 0 0 0-55.3 53.763v.416c.475 22.743 6.374 42.59 17.057 57.4 10.223 14.168 24.338 22.481 38.727 22.809.3.007.605.011.907.011 13.76 0 26.5-7.164 35.97-20.25 10.233-14.147 16.28-34.2 17.974-59.6q.026-.39.013-.782a55.27 55.27 0 0 0-55.302-53.767zm.8 118.388c-19.049-.433-39.247-24.608-40.148-64.329a39.345 39.345 0 0 1 78.641-.176c-3.309 48.177-22.807 64.834-38.492 64.505zm244.153 72.937a8 8 0 0 0-4.254-3.262 194.193 194.193 0 0 1-42.773-20.445 8 8 0 0 0-11.169 2.783l-14.606 25.3-14.607-25.3a8 8 0 0 0-11.169-2.783 198.506 198.506 0 0 1-38.935 19.128 91.117 91.117 0 0 0-9.907-20.564 8 8 0 0 0-4.254-3.262c-19.254-6.221-39.26-15.781-59.462-28.414a8 8 0 0 0-11.169 2.784L256 397.117l-22.673-39.268a8 8 0 0 0-11.169-2.784c-20.2 12.632-40.206 22.192-59.461 28.414a8 8 0 0 0-4.254 3.262 91.143 91.143 0 0 0-9.908 20.564 198.5 198.5 0 0 1-38.935-19.128 8 8 0 0 0-11.169 2.783l-14.607 25.3-14.606-25.3a8 8 0 0 0-11.169-2.783 194.193 194.193 0 0 1-42.773 20.445 8 8 0 0 0-4.254 3.262 68.613 68.613 0 0 0-8.556 55.5 7.993 7.993 0 0 0 4.1 5.009c24.912 12.628 51.087 18.943 77.263 18.943s52.352-6.315 77.264-18.943a7.986 7.986 0 0 0 1.769-1.229 225.288 225.288 0 0 0 186.283 0 7.94 7.94 0 0 0 1.77 1.23c24.915 12.63 51.084 18.944 77.264 18.943s52.354-6.317 77.264-18.943a7.993 7.993 0 0 0 4.095-5.009 68.621 68.621 0 0 0-8.561-55.501zm-483.9 47.86a52.61 52.61 0 0 1 5.957-36.844 206.052 206.052 0 0 0 36.406-16.881L76.9 436.258a8 8 0 0 0 13.856 0l17.458-30.237a205.732 205.732 0 0 0 36.567 16.917 91.2 91.2 0 0 0 2.277 37.67c.062.225.139.443.219.66-42.277 19.179-88.116 18.68-130.201-1.524zm144.551-6.784a75.324 75.324 0 0 1 8.79-55.181 281.547 281.547 0 0 0 53.148-24.839l25.507 44.177a8 8 0 0 0 13.856 0l25.506-44.177a281.641 281.641 0 0 0 53.149 24.839 75.323 75.323 0 0 1 8.789 55.181c-60.998 29.756-127.747 29.758-188.745 0zm333.3 6.784c-42.089 20.206-87.925 20.7-130.2 1.523.08-.216.157-.434.219-.659a91.222 91.222 0 0 0 2.278-37.67 205.732 205.732 0 0 0 36.567-16.917l17.458 30.237a8 8 0 0 0 13.856 0l17.458-30.237a206.052 206.052 0 0 0 36.404 16.879 52.615 52.615 0 0 1 5.958 36.844zM428.2 289.991h-.047a42.383 42.383 0 0 0-42.4 41.225v.417c.356 16.989 4.789 31.853 12.821 42.985 7.84 10.865 18.736 17.243 29.893 17.5.221 0 .439.007.661.007 17.435 0 38.5-15.678 41.467-60.126.017-.26.021-.52.014-.781a42.383 42.383 0 0 0-42.409-41.227zm.626 86.129c-12.823-.293-26.43-17.052-27.077-44.606a26.444 26.444 0 0 1 52.849-.172c-2.186 31.285-14.498 45.031-25.774 44.778zM83.849 289.991H83.8a42.383 42.383 0 0 0-42.4 41.225v.417c.356 16.989 4.79 31.853 12.822 42.985 7.84 10.865 18.735 17.243 29.892 17.5.221 0 .44.007.661.007 17.435 0 38.5-15.678 41.467-60.126.018-.26.022-.52.014-.781a42.383 42.383 0 0 0-42.407-41.227zm.936 86.132h-.31c-12.824-.293-26.431-17.052-27.078-44.606a26.444 26.444 0 0 1 52.849-.172c-2.164 30.995-14.269 44.778-25.461 44.778zM353.1 91.192a8 8 0 0 0-6.181-5.4l-56.614-10.267-27.26-50.672a8 8 0 0 0-14.09 0L221.7 75.525l-56.621 10.268a8 8 0 0 0-4.353 13.4l39.768 41.584-7.731 57.023a8 8 0 0 0 11.4 8.282L256 181.1l51.839 24.973a8 8 0 0 0 11.4-8.282l-7.732-57.018 39.768-41.584a8 8 0 0 0 1.825-7.997zM297.279 132.5a8 8 0 0 0-2.146 6.6l6.252 46.1-41.913-20.191a8 8 0 0 0-6.944 0L210.616 185.2l6.251-46.1a8 8 0 0 0-2.146-6.6l-32.155-33.618 45.777-8.3a8 8 0 0 0 5.617-4.082L256 45.529 278.04 86.5a8 8 0 0 0 5.617 4.081l45.777 8.3zm200.5 70.88a8 8 0 0 0-6.18-5.4l-38.053-6.9-18.326-34.054a8 8 0 0 0-14.09 0l-18.322 34.059-38.054 6.9a8 8 0 0 0-4.354 13.4l26.73 27.95-5.2 38.323a8 8 0 0 0 11.4 8.282l34.842-16.784 34.842 16.784a8 8 0 0 0 11.4-8.282l-5.2-38.323 26.728-27.95a8 8 0 0 0 1.833-8.001zm-42.782 27.679a8 8 0 0 0-2.146 6.6l3.716 27.406-24.917-12a8 8 0 0 0-6.943 0l-24.916 12 3.716-27.406a8 8 0 0 0-2.147-6.6l-19.115-19.989 27.214-4.933a8 8 0 0 0 5.617-4.082l13.1-24.356 13.1 24.356a8.005 8.005 0 0 0 5.618 4.082l27.212 4.933zm-301.571-27.675a8 8 0 0 0-6.181-5.4l-38.053-6.9-18.322-34.058a8 8 0 0 0-14.09 0l-18.322 34.059-38.054 6.9a8 8 0 0 0-4.353 13.4l26.729 27.95-5.2 38.323a8 8 0 0 0 11.4 8.282l34.842-16.784 34.842 16.784a8 8 0 0 0 11.4-8.282l-5.2-38.323 26.729-27.95a8 8 0 0 0 1.833-8.001zm-42.782 27.679a8 8 0 0 0-2.147 6.6l3.716 27.406-24.916-12a8 8 0 0 0-6.943 0l-24.916 12 3.715-27.406a8 8 0 0 0-2.146-6.6l-19.115-19.989 27.213-4.933a8.005 8.005 0 0 0 5.618-4.082l13.1-24.356 13.1 24.356a8 8 0 0 0 5.617 4.082l27.213 4.933z" fill="#5671f1" opacity="1" data-original="#000000" class=""></path></g></svg>