<svg xmlns="http://www.w3.org/2000/svg" version="1.1" xmlns:xlink="http://www.w3.org/1999/xlink" width="512" height="512" x="0" y="0" viewBox="0 0 64 64" style="enable-background:new 0 0 512 512" xml:space="preserve" class=""><g><g data-name="23. Travelling"><path fill="#fffeff" d="m6 38 5.09-15.26A4 4 0 0 1 14.88 20h23.77a4 4 0 0 1 3.49 2.06L51 38z" opacity="1" data-original="#fffeff"></path><path fill="#0c3798" d="M40 38a1 1 0 0 1-.51-.14 1 1 0 0 1-.35-1.37l3-5a1 1 0 0 1 1.72 1l-3 5A1 1 0 0 1 40 38z" opacity="1" data-original="#0c3798" class=""></path><path fill="#88b8f9" d="M62 40a4 4 0 0 0-4-4h-5.82l-8.29-14.91A6 6 0 0 0 38.65 18H14.88a6 6 0 0 0-5.69 4.1L4.45 36.31A4 4 0 0 0 2 40a2.11 2.11 0 0 1 0 4v6h59.16c-1.1-2 .84-4 .84-4v-2a2.65 2.65 0 0 1 0-4zM23 22h15.65a2 2 0 0 1 1.74 1l7.21 13H23zm-10 1.37A2 2 0 0 1 14.88 22H19v14H8.77z" opacity="1" data-original="#88b8f9" class=""></path><path fill="#b7dbf9" d="M60 46h2v5h-4v-3a2 2 0 0 1 2-2z" opacity="1" data-original="#b7dbf9"></path><rect width="64" height="4" y="50" fill="#2f79f0" rx="2" opacity="1" data-original="#2f79f0" class=""></rect><circle cx="11" cy="53" r="7" fill="#0c3798" opacity="1" data-original="#0c3798" class=""></circle><circle cx="11" cy="53" r="3" fill="#2f79f0" opacity="1" data-original="#2f79f0" class=""></circle><circle cx="52" cy="53" r="7" fill="#0c3798" opacity="1" data-original="#0c3798" class=""></circle><circle cx="52" cy="53" r="3" fill="#2f79f0" opacity="1" data-original="#2f79f0" class=""></circle><path fill="#f8cf6d" d="M60 40h2v4h-2a2 2 0 0 1-2-2 2 2 0 0 1 2-2z" opacity="1" data-original="#f8cf6d"></path><path fill="#ee7231" d="M4 44H2v-4h2a2 2 0 0 1 2 2 2 2 0 0 1-2 2z" opacity="1" data-original="#ee7231"></path><rect width="6" height="2" x="24" y="38" fill="#fffeff" rx="1" opacity="1" data-original="#fffeff"></rect><circle cx="34" cy="27" r="4" fill="#2f79f0" opacity="1" data-original="#2f79f0" class=""></circle><path fill="#2f79f0" d="M39 35.88A5.12 5.12 0 0 0 34 32h-4.54l-2-6.36a1.51 1.51 0 0 0-2.92.72l1.52 8.12A1.86 1.86 0 0 0 27.88 36H39z" opacity="1" data-original="#2f79f0" class=""></path><circle cx="16" cy="8" r="2" fill="#0c3798" opacity="1" data-original="#0c3798" class=""></circle><circle cx="16" cy="15" r="2" fill="#0c3798" opacity="1" data-original="#0c3798" class=""></circle><path fill="#f8cf6d" d="M37 14h-5a1 1 0 0 1-1-1V9a1 1 0 0 1 1-1h5a1 1 0 0 1 1 1v4a1 1 0 0 1-1 1zm-4-2h3v-2h-3z" opacity="1" data-original="#f8cf6d"></path><rect width="14" height="18" x="18" y="2" fill="#ee7231" rx="2" transform="rotate(90 25 11)" opacity="1" data-original="#ee7231"></rect><path fill="#f8cf6d" d="M31 12H19a1 1 0 0 1 0-2h12a1 1 0 0 1 0 2zM31 8H19a1 1 0 0 1 0-2h12a1 1 0 0 1 0 2zM31 16H19a1 1 0 0 1 0-2h12a1 1 0 0 1 0 2z" opacity="1" data-original="#f8cf6d"></path><path fill="#ee7231" d="M56 18v6a2 2 0 0 1-2 2H44l-1.54 1.54a.27.27 0 0 1-.46-.18V18a2 2 0 0 1 2-2h10a2 2 0 0 1 2 2z" opacity="1" data-original="#ee7231"></path><g fill="#fffeff"><circle cx="49" cy="21" r="1" fill="#fffeff" opacity="1" data-original="#fffeff"></circle><circle cx="53" cy="21" r="1" fill="#fffeff" opacity="1" data-original="#fffeff"></circle><circle cx="45" cy="21" r="1" fill="#fffeff" opacity="1" data-original="#fffeff"></circle></g></g></g></svg>