<svg xmlns="http://www.w3.org/2000/svg" version="1.1" xmlns:xlink="http://www.w3.org/1999/xlink" width="512" height="512" x="0" y="0" viewBox="0 0 50 50" style="enable-background:new 0 0 512 512" xml:space="preserve" class=""><g><path d="M13.6 18.4c-.5-.3-1.1-.1-1.3.4-1.2 2.2-1.9 4.3-2.3 6.3-.1.6.4 1.2 1 1.2h28.2c.3 0 .6-.1.8-.4.2-.2.3-.5.2-.8-.4-1.9-1.2-4-2.3-6.3-.2-.5-.8-.7-1.3-.4-.5.2-.7.9-.4 1.3.8 1.6 1.4 3.2 1.8 4.6H12.2c.4-1.4 1-2.9 1.9-4.5.2-.5 0-1.1-.5-1.4zM29.9 31.8h-9.8c-1 0-1.9.4-2.6 1-1.1 1.1-1.5 2.8-.9 4.2l.7 1.6c.6 1.4 2 2.3 3.5 2.3h8.4c1.5 0 2.9-.9 3.5-2.3l.7-1.7c.6-1.4.3-3.1-.9-4.2-.7-.5-1.6-.9-2.6-.9zm-3.6 2V39h-2.6v-5.2zM19.2 38l-.7-1.6c-.3-.7-.1-1.5.4-2 .3-.3.8-.5 1.2-.5h1.6V39h-.9c-.7 0-1.3-.4-1.6-1zm12.3-1.7-.7 1.7c-.3.7-.9 1.1-1.6 1.1h-.9v-5.2h1.6c.5 0 .9.2 1.2.5.6.4.7 1.2.4 1.9z" fill="#5671f1" opacity="1" data-original="#000000" class=""></path><path d="m48.5 26.8.4-2c.1-.6 0-1.2-.4-1.7s-1-.7-1.6-.7h-3.7c-.6-2-1.5-4-2.7-6.2-.4-.7-1-1.3-1.6-1.8-.5-.3-1.1-.2-1.4.3s-.2 1.1.3 1.4c.4.2.7.6 1 1 1.6 2.9 2.6 5.6 3 8 .1.8.4 1.6.8 2.4 0 .2.1.3.2.4H7.1c.1-.1.2-.3.2-.4.4-.8.6-1.6.8-2.4.4-2.4 1.4-5.1 3-8 .2-.4.6-.8 1-1 .5-.3.6-.9.3-1.4s-.9-.6-1.4-.3c-.7.4-1.2 1-1.6 1.8-1.2 2.2-2.1 4.2-2.7 6.2H3c-.6 0-1.2.3-1.6.7-.4.5-.5 1.1-.4 1.7l.4 2c.2.9 1 1.6 2 1.6h1L3.2 30C1.8 31.9 1 33.9 1 36.4v9.7C1 47.7 2.3 49 3.9 49h5.5c1.6 0 2.8-1.3 2.8-2.8v-1.3h25.6v1.3c0 1.6 1.3 2.8 2.8 2.8h5.5c1.6 0 2.8-1.3 2.8-2.8v-9.7c0-2.5-.7-4.5-2.2-6.4l-1.2-1.6h1c1-.1 1.8-.8 2-1.7zm-1.9 7.4c.1.4.2.8.2 1.2h-1.4c-.6 0-1 .4-1 1s.4 1 1 1H47v1.3c-3.5-.1-5.7-1.5-7-2.7-.1-.1-.1-.3-.1-.4s.1-.2.3-.3c1.5-.4 3.8-1 6.4-1.1zm-7-.8c-.8.3-1.4.9-1.7 1.7-.2.8 0 1.7.6 2.3 1.5 1.5 4.2 3.2 8.4 3.3v2.1H3v-2.1c4.2-.1 6.9-1.8 8.4-3.3.6-.6.8-1.4.6-2.3-.2-.8-.8-1.5-1.7-1.7-1.5-.5-3.7-1-6.3-1.2.2-.3.4-.7.6-1L5.7 30h38.5l.9 1.2c.2.3.4.7.6 1-2.4.2-4.6.8-6.1 1.2zM3 37.4h1.5c.6 0 1-.4 1-1s-.4-1-1-1H3.1c.1-.4.1-.8.2-1.2 2.6.1 5 .7 6.5 1.2.2.1.3.2.3.3s0 .2-.1.4c-1.3 1.2-3.5 2.7-7 2.7zm.4-11-.4-2h3.2c0 .2-.1.3-.1.5-.1.5-.3 1-.5 1.5zm6.8 19.7c0 .5-.4.8-.8.8H3.9c-.5.1-.9-.3-.9-.8v-1.3h7.1v1.3zm35.9.9h-5.5c-.5 0-.8-.4-.8-.8v-1.3H47v1.3c0 .4-.4.8-.9.8zm-2.2-22.1c0-.2-.1-.3-.1-.5H47l-.4 2h-2.2c-.2-.5-.4-1-.5-1.5z" fill="#5671f1" opacity="1" data-original="#000000" class=""></path><path d="M33.7 2.2c0-.6-.4-1-1-1s-1 .4-1 1v1.3C29.9 1.9 27.5 1 25 1c-5.9 0-10.7 4.8-10.7 10.7S19.1 22.4 25 22.4c5.4 0 10-4.1 10.6-9.4.1-.5-.3-1-.9-1.1s-1 .3-1.1.9c-.5 4.4-4.2 7.7-8.7 7.7-4.8 0-8.7-3.9-8.7-8.7.1-4.9 4-8.8 8.8-8.8 2 0 3.9.7 5.4 1.9H29c-.6 0-1 .4-1 1s.4 1 1 1h3.7c.5 0 1-.5 1-1z" fill="#5671f1" opacity="1" data-original="#000000" class=""></path><path d="M21.9 13.6c.6-.4 1-.7 1.4-1s.7-.6 1-1 .4-.9.4-1.3c0-.5-.1-.9-.4-1.3-.2-.4-.6-.7-1-.9s-.9-.3-1.4-.3c-.9 0-1.8.2-2.5.6-.3.2-.4.4-.4.6s.1.4.2.5c.2.2.5.2.8.1.6-.2 1.1-.4 1.8-.4.5 0 .9.1 1.1.3s.3.5.3.8c0 .2-.1.4-.2.6l-.6.6c-.3.2-.6.4-1 .7-.5.3-.9.6-1.3.9l-.9.9c-.3.4-.4.8-.4 1.2 0 .2.1.4.2.6.2.2.4.2.6.2h4.2c.2 0 .4-.1.5-.2s.2-.3.2-.5-.1-.4-.2-.5-.3-.2-.5-.2h-3.3l.2-.2c.3-.2.7-.4 1.2-.8zM29.4 15.9c.1.1.3.2.5.2s.4-.1.5-.2.2-.3.2-.5v-1.2h.6c.2 0 .4-.1.5-.2s.2-.3.2-.5-.1-.4-.2-.5-.3-.2-.5-.2h-.6v-4c0-.2-.1-.5-.2-.6-.2-.2-.4-.3-.6-.3h-.2c-.3 0-.6.1-.7.4l-3.4 4.4c-.1.2-.2.3-.2.5v.1c0 .2.1.5.3.6.2.2.4.3.6.3h3.1v1.2c-.1.2 0 .4.1.5zm-.2-5.9v2.8h-2.1z" fill="#5671f1" opacity="1" data-original="#000000" class=""></path></g></svg>