<svg xmlns="http://www.w3.org/2000/svg" version="1.1" xmlns:xlink="http://www.w3.org/1999/xlink" width="512" height="512" x="0" y="0" viewBox="0 0 64 64" style="enable-background:new 0 0 512 512" xml:space="preserve" class=""><g><path d="M46.86 48.32H6c-1.74 0-3.35-.8-4.4-2.2A5.448 5.448 0 0 1 .48 42.8v-3.68c0-1.61.42-3.19 1.21-4.58a9.247 9.247 0 0 1 3.33-3.36c1.21-.7 2.17-1.74 2.79-2.99l.68-1.33c.01-.03.02-.05.03-.08l3.02-6.05a8.381 8.381 0 0 1 7.54-4.66h7.93c.55 0 1 .45 1 1s-.45 1-1 1h-7.93c-2.45 0-4.66 1.36-5.76 3.56l-2.98 5.98c-.01.03-.03.06-.04.09l-.71 1.39c-.8 1.6-2.03 2.92-3.57 3.82-1.08.64-1.99 1.55-2.61 2.63s-.95 2.32-.95 3.58v3.68c0 .77.25 1.5.71 2.11.67.9 1.7 1.41 2.81 1.41h40.86c1.1 0 2.12-.5 2.78-1.38.4-.52.65-1.11.71-1.73a1 1 0 1 1 1.99.21c-.11.99-.49 1.94-1.12 2.74-1.01 1.37-2.61 2.16-4.34 2.16z" fill="#5671f1" opacity="1" data-original="#000000" class=""></path><path d="M7.42 56.42H6.09c-2.58 0-4.69-2.1-4.69-4.69V45.5c0-.55.45-1 1-1s1 .45 1 1v6.23c0 1.48 1.21 2.69 2.69 2.69h1.33c1.47 0 2.67-1.21 2.67-2.69v-4.4c0-.55.45-1 1-1s1 .45 1 1v4.4c0 2.59-2.09 4.69-4.67 4.69zM46.78 56.42h-1.33c-2.58 0-4.69-2.1-4.69-4.69v-4.4c0-.55.45-1 1-1s1 .45 1 1v4.4c0 1.48 1.21 2.69 2.69 2.69h1.33c1.47 0 2.67-1.21 2.67-2.69v-6.21c0-.55.45-1 1-1s1 .45 1 1v6.21c0 2.59-2.1 4.69-4.67 4.69zM27.13 29.97H12.57c-.34 0-.66-.17-.84-.46s-.21-.65-.07-.96l2.9-6.33c.88-1.66 2.54-2.65 4.36-2.65h7.06c.55 0 1 .45 1 1s-.45 1-1 1h-7.06c-1.08 0-2.06.59-2.57 1.54l-2.22 4.86h13c.55 0 1 .45 1 1s-.44 1-1 1zM10.7 43.16c-2.26 0-4.1-1.84-4.1-4.11s1.84-4.1 4.1-4.1 4.11 1.84 4.11 4.1-1.84 4.11-4.11 4.11zm0-6.21c-1.16 0-2.1.94-2.1 2.1s.94 2.11 2.1 2.11 2.11-.94 2.11-2.11c0-1.15-.94-2.1-2.11-2.1zM42.18 43.16a4.11 4.11 0 0 1-4.11-4.11c0-.87.29-1.73.81-2.43.33-.44.96-.53 1.4-.2s.53.96.2 1.4c-.26.36-.41.79-.41 1.23 0 1.16.95 2.11 2.11 2.11s2.1-.95 2.1-2.11c0-.63-.28-1.23-.77-1.62-.43-.35-.49-.98-.14-1.41s.98-.49 1.41-.14a4.08 4.08 0 0 1 1.51 3.18 4.12 4.12 0 0 1-4.11 4.1zM32.38 44.78h-11.9c-2.12 0-3.85-1.73-3.85-3.85s1.73-3.85 3.85-3.85h11.9c2.12 0 3.85 1.73 3.85 3.85s-1.73 3.85-3.85 3.85zm-11.9-5.69c-1.02 0-1.85.83-1.85 1.85s.83 1.85 1.85 1.85h11.9c1.02 0 1.85-.83 1.85-1.85s-.83-1.85-1.85-1.85zM8.91 29.25H4.18c-2.06 0-3.74-1.68-3.74-3.74 0-1 .39-1.94 1.09-2.64.71-.71 1.65-1.1 2.64-1.1h1.48c1.48 0 2.82.87 3.43 2.23l1.25 2.84a1 1 0 0 1-.43 1.28c.01.04.01.09.01.13 0 .55-.44 1-1 1zm-4.73-5.48c-.46 0-.9.18-1.23.51s-.51.76-.51 1.23c0 .96.78 1.74 1.74 1.74h4.15l-1.08-2.44c-.28-.63-.91-1.04-1.6-1.04z" fill="#5671f1" opacity="1" data-original="#000000" class=""></path><path d="M40.14 38.23c-.72 0-1.44-.05-2.16-.15a15.25 15.25 0 0 1-10.11-5.95c-5.09-6.75-3.74-16.38 3-21.46 6.75-5.09 16.38-3.74 21.46 3 5.09 6.75 3.74 16.38-3 21.46a15.09 15.09 0 0 1-9.19 3.1zm-.05-28.65c-2.79 0-5.61.87-8.01 2.68-5.87 4.43-7.04 12.8-2.61 18.66a13.23 13.23 0 0 0 8.79 5.17c3.53.49 7.03-.42 9.87-2.56 5.87-4.43 7.04-12.8 2.61-18.66-2.61-3.46-6.61-5.29-10.65-5.29z" fill="#5671f1" opacity="1" data-original="#000000" class=""></path><path d="M40.13 34.07c-.52 0-1.05-.04-1.57-.11a11.06 11.06 0 0 1-7.36-4.33C27.49 24.71 28.48 17.7 33.39 14c4.91-3.71 11.92-2.73 15.63 2.19 3.71 4.91 2.72 11.92-2.19 15.63a11.123 11.123 0 0 1-6.7 2.25zm-.03-20.32a9.1 9.1 0 0 0-5.5 1.84c-4.03 3.04-4.84 8.8-1.8 12.83a9.115 9.115 0 0 0 6.04 3.56 9.12 9.12 0 0 0 6.79-1.76c4.03-3.04 4.84-8.8 1.8-12.83a9.203 9.203 0 0 0-7.33-3.64zM58.18 52.34c-.82 0-1.64-.37-2.17-1.08l-5.22-6.91c-.9-1.2-.66-2.91.53-3.81l2.66-2.01c1.2-.9 2.9-.66 3.81.53l5.22 6.91c.9 1.2.66 2.9-.53 3.81l-2.67 2.01c-.49.37-1.06.55-1.63.55zm-2.56-12.36c-.15 0-.3.05-.43.14l-2.67 2.01c-.32.24-.38.69-.14 1.01l5.21 6.91c.24.32.69.38 1.01.14l2.66-2.01c.32-.24.38-.69.14-1.01l-5.21-6.91a.744.744 0 0 0-.47-.28h-.1z" fill="#5671f1" opacity="1" data-original="#000000" class=""></path><path d="M51.89 42.37c-.3 0-.6-.14-.8-.4l-4.59-6.08c-.33-.44-.24-1.07.2-1.4s1.07-.25 1.4.2l4.59 6.08c.33.44.24 1.07-.2 1.4-.18.13-.39.2-.6.2zM54.63 40.3c-.3 0-.6-.14-.8-.4l-4.59-6.08c-.33-.44-.24-1.07.2-1.4s1.07-.25 1.4.2l4.59 6.08a1.003 1.003 0 0 1-.8 1.6z" fill="#5671f1" opacity="1" data-original="#000000" class=""></path></g></svg>