<svg xmlns="http://www.w3.org/2000/svg" version="1.1" xmlns:xlink="http://www.w3.org/1999/xlink" width="512" height="512" x="0" y="0" viewBox="0 0 58 58" style="enable-background:new 0 0 512 512" xml:space="preserve" class=""><g><g fill="none" fill-rule="nonzero"><rect width="40" height="26" x="18" fill="#b0d3f0" rx="4" opacity="1" data-original="#b0d3f0" class=""></rect><path fill="#f9c795" d="M48.68 19.98a2.686 2.686 0 0 1-5.36 0 2.613 2.613 0 0 0 .86-3.31h3.64a2.613 2.613 0 0 0 .86 3.31z" opacity="1" data-original="#f9c795" class=""></path><path fill="#2980ba" d="M54 23H38a3.663 3.663 0 0 1 3.71-3.02h1.61a2.686 2.686 0 0 0 5.36 0h1.61A3.663 3.663 0 0 1 54 23z" opacity="1" data-original="#2980ba" class=""></path><g fill="#3f5c6c"><path d="M23 7h-1a1 1 0 0 1 0-2h1a1 1 0 0 1 0 2zM35 7h-8a1 1 0 0 1 0-2h8a1 1 0 0 1 0 2zM23 11h-1a1 1 0 0 1 0-2h1a1 1 0 0 1 0 2zM35 11h-8a1 1 0 0 1 0-2h8a1 1 0 0 1 0 2zM23 15h-1a1 1 0 0 1 0-2h1a1 1 0 0 1 0 2zM35 15h-8a1 1 0 0 1 0-2h8a1 1 0 0 1 0 2z" fill="#3f5c6c" opacity="1" data-original="#3f5c6c" class=""></path></g><path fill="#35495e" d="M40 34h2a2.006 2.006 0 0 0 2-2 2.015 2.015 0 0 0-2-2h-3a.994.994 0 0 0-.49.13H7.49A.994.994 0 0 0 7 30H4a2.015 2.015 0 0 0-2 2 2.006 2.006 0 0 0 2 2z" opacity="1" data-original="#35495e"></path><path fill="#b0d3f0" d="m40 34-4.014-10.436A4 4 0 0 0 32.253 21H13.747a4 4 0 0 0-3.733 2.564L6 34z" opacity="1" data-original="#b0d3f0" class=""></path><path fill="#90bae1" d="M25.7 34H6l4.01-10.44A4.013 4.013 0 0 1 13.75 21h.99c1.35 3.27 4.69 9.73 10.96 13z" opacity="1" data-original="#90bae1"></path><path fill="#2e79f0" d="m44.5 36.8-2.951-2.361a2.047 2.047 0 0 0-.4-.242l-4.23-10.992A5.029 5.029 0 0 0 32.253 20H13.747a5.031 5.031 0 0 0-4.667 3.2l-4.227 11a2.047 2.047 0 0 0-.4.242L1.5 36.8A4 4 0 0 0 0 39.922V47h46v-7.078a4 4 0 0 0-1.5-3.122zM10.947 23.923a3.019 3.019 0 0 1 2.8-1.923h18.506c1.24.005 2.35.768 2.8 1.923L38.929 34H7.071z" opacity="1" data-original="#c03a2b" class=""></path><path fill="#35495e" d="M3 51h8v5a2 2 0 0 1-2 2H5a2 2 0 0 1-2-2zM35 51h8v5a2 2 0 0 1-2 2h-4a2 2 0 0 1-2-2z" opacity="1" data-original="#35495e"></path><path fill="#2980ba" d="M0 47h46v2a3 3 0 0 1-3 3H3a3 3 0 0 1-3-3z" opacity="1" data-original="#802f34" class=""></path><rect width="6" height="4" x="4" y="39" fill="#f3d55b" rx="1" opacity="1" data-original="#f3d55b" class=""></rect><rect width="16" height="4" x="15" y="39" fill="#2c2f38" rx="1" opacity="1" data-original="#2c2f38" class=""></rect><rect width="6" height="4" x="36" y="39" fill="#f3d55b" rx="1" opacity="1" data-original="#f3d55b" class=""></rect><path fill="#d1d4d1" d="M18 39h2v4h-2zM22 39h2v4h-2zM26 39h2v4h-2z" opacity="1" data-original="#d1d4d1" class=""></path><path fill="#bdc3c7" d="M16 47h14v5H16z" opacity="1" data-original="#bdc3c7" class=""></path><path fill="#fdd7ad" d="M40.642 6.918v3.573a1.5 1.5 0 1 0 .3 2.97 5.391 5.391 0 0 0 10.116 0 1.5 1.5 0 1 0 .3-2.97V6.918z" opacity="1" data-original="#fdd7ad" class=""></path><path fill="#a56a43" d="M51.358 10.491S52.966 6.5 50.287 5c-2.364-1.322-8.066.466-10.479-1.153a.5.5 0 0 0-.8.416c.068 1.549.526 4.055 2.7 4.732A5.835 5.835 0 0 0 46 9c1.929-.88 4.668-1.207 5.358 1.491z" opacity="1" data-original="#a56a43" class=""></path></g></g></svg>