<svg xmlns="http://www.w3.org/2000/svg" version="1.1" xmlns:xlink="http://www.w3.org/1999/xlink" width="512" height="512" x="0" y="0" viewBox="0 0 512 512" style="enable-background:new 0 0 512 512" xml:space="preserve" class=""><g><path fill="#333756" d="M484.42 496.59h-31.17c-7.59 0-13.74-6.15-13.74-13.74v-96.47c0-7.59 6.15-13.74 13.74-13.74h31.17c7.59 0 13.74 6.15 13.74 13.74v96.47c0 7.59-6.15 13.74-13.74 13.74z" opacity="1" data-original="#333756"></path><path fill="#424566" d="M58.75 496.59H27.59c-7.59 0-13.74-6.15-13.74-13.74v-96.47c0-7.59 6.15-13.74 13.74-13.74h31.17c7.59 0 13.74 6.15 13.74 13.74v96.47c0 7.59-6.16 13.74-13.75 13.74z" opacity="1" data-original="#424566"></path><path fill="#47b5ff" d="M15.57 389.27c.86 3.73 4.4 34.53 6.88 53.15.96 7.18 7.08 12.54 14.33 12.54h438.44c7.25 0 13.37-5.36 14.33-12.54 2.48-18.62 6.02-49.41 6.88-53.15 2.7-11.78 7.03-23.19 8.41-35.25 1.74-15.28-.17-30.8-5.98-45.06-9.56-23.46-26.21-43.26-35.67-66.78-9.88-24.58-21.28-48.51-31.99-72.73-15-33.92-48.57-55.81-85.66-55.81H166.46c-37.09 0-70.65 21.9-85.66 55.81-10.71 24.22-22.11 48.14-31.99 72.73-9.45 23.53-26.1 43.32-35.67 66.78-5.81 14.26-7.72 29.79-5.98 45.06 1.38 12.07 5.71 23.48 8.41 35.25z" opacity="1" data-original="#47b5ff"></path><path fill="#2192ff" d="M498.87 308.96c-9.57-23.46-26.22-43.25-35.67-66.78-9.88-24.58-21.28-48.51-31.99-72.73-15.01-33.91-48.57-55.81-85.66-55.81H256v341.32h219.23c7.25 0 13.37-5.35 14.33-12.54 2.48-18.62 6.02-49.41 6.88-53.14 2.7-11.78 7.03-23.19 8.41-35.25 1.74-15.28-.17-30.81-5.98-45.07z" opacity="1" data-original="#2192ff"></path><path fill="#616484" d="M428.23 197.86c-3.35-7.39-6.82-15.02-10.17-22.6-12.7-28.7-41.16-47.26-72.51-47.26H166.46c-31.36 0-59.82 18.55-72.53 47.26-3.35 7.57-6.8 15.21-10.15 22.59-6.35 14.03-12.88 28.46-18.87 42.89 60.57 5.22 124.71 8.01 191.09 8.01s130.52-2.79 191.08-8.01c-5.97-14.42-12.49-28.85-18.85-42.88z" opacity="1" data-original="#616484"></path><path fill="#424566" d="M428.24 197.87c-3.36-7.39-6.82-15.02-10.17-22.61C405.36 146.57 376.9 128 345.56 128H256v120.75h.01c66.39 0 130.52-2.79 191.08-8.01-5.97-14.41-12.5-28.84-18.85-42.87z" opacity="1" data-original="#424566"></path><path fill="#cad4ff" d="m403.09 382.35 13.11-25.96c4.47-8.86 11.07-16.53 19.37-21.96 9.36-6.12 23.08-12.42 40.51-13.16 0 0 9.27.74 9.27 16.32v17.12c0 5.47-3.1 10.47-8.02 12.87-10.52 5.13-32.62 12.99-73.26 16.22-.77.05-1.33-.76-.98-1.45z" opacity="1" data-original="#cad4ff"></path><g fill="#e6eaff"><path d="M461.9 333.74c-8.76 0-15.88 7.1-15.88 15.88s7.12 15.88 15.88 15.88c8.78 0 15.88-7.1 15.88-15.88s-7.1-15.88-15.88-15.88zm0 27.1c-6.19 0-11.22-5.03-11.22-11.22s5.03-11.22 11.22-11.22 11.22 5.03 11.22 11.22-5.03 11.22-11.22 11.22z" fill="#e6eaff" opacity="1" data-original="#e6eaff"></path><path d="M461.9 341.63c-4.41 0-7.99 3.58-7.99 7.99s3.58 7.99 7.99 7.99 7.99-3.58 7.99-7.99-3.58-7.99-7.99-7.99zm0 10.89c-1.6 0-2.89-1.3-2.89-2.9s1.29-2.89 2.89-2.89 2.89 1.29 2.89 2.89-1.29 2.9-2.89 2.9zM431 357.07c-5 0-9.06 4.05-9.06 9.06s4.06 9.06 9.06 9.06c5.01 0 9.06-4.05 9.06-9.06s-4.05-9.06-9.06-9.06zm0 15.46c-3.53 0-6.4-2.87-6.4-6.4s2.87-6.4 6.4-6.4 6.4 2.87 6.4 6.4-2.87 6.4-6.4 6.4z" fill="#e6eaff" opacity="1" data-original="#e6eaff"></path><path d="M431.01 362.69c-1.9 0-3.45 1.54-3.45 3.44s1.55 3.44 3.45 3.44a3.44 3.44 0 1 0 0-6.88zm0 4.69a1.25 1.25 0 0 1 0-2.5c.68 0 1.24.56 1.24 1.25s-.56 1.25-1.24 1.25z" fill="#e6eaff" opacity="1" data-original="#e6eaff"></path></g><path fill="#ffc738" d="M476.09 321.26c-17.43.73-31.16 7.04-40.51 13.17-8.32 5.43-14.91 13.1-19.38 21.95l-13.1 25.97c-.35.69.21 1.5.97 1.44.48-.03.96-.08 1.44-.13l12.74-25.22c4.47-8.86 11.06-16.54 19.38-21.96 9.04-5.93 22.18-12.02 38.8-13.08 1.96-.13 3.95.39 5.53 1.56.02.02.04.03.06.05-2.66-3.49-5.93-3.75-5.93-3.75z" opacity="1" data-original="#ffc738"></path><path fill="#e6eaff" d="M108.91 382.35 95.8 356.39c-4.47-8.86-11.07-16.53-19.37-21.96-9.36-6.12-23.08-12.42-40.51-13.16 0 0-9.27.74-9.27 16.32v17.12c0 5.47 3.1 10.47 8.02 12.87 10.52 5.13 32.62 12.99 73.26 16.22.78.05 1.33-.76.98-1.45z" opacity="1" data-original="#e6eaff"></path><g fill="#fff"><path d="M34.23 349.62c0 8.78 7.1 15.88 15.88 15.88 8.76 0 15.88-7.1 15.88-15.88s-7.12-15.88-15.88-15.88c-8.78 0-15.88 7.1-15.88 15.88zm4.66 0c0-6.19 5.03-11.22 11.22-11.22s11.22 5.03 11.22 11.22-5.03 11.22-11.22 11.22-11.22-5.03-11.22-11.22z" fill="#ffffff" opacity="1" data-original="#ffffff"></path><path d="M50.11 341.63c-4.41 0-7.99 3.58-7.99 7.99s3.58 7.99 7.99 7.99 7.99-3.58 7.99-7.99-3.58-7.99-7.99-7.99zm0 10.89c-1.6 0-2.89-1.3-2.89-2.9s1.29-2.89 2.89-2.89 2.89 1.29 2.89 2.89-1.29 2.9-2.89 2.9zM71.94 366.13c0 5.01 4.05 9.06 9.06 9.06 5 0 9.06-4.05 9.06-9.06S86 357.07 81 357.07c-5.01 0-9.06 4.05-9.06 9.06zm2.66 0c0-3.53 2.87-6.4 6.4-6.4s6.4 2.87 6.4 6.4-2.87 6.4-6.4 6.4-6.4-2.87-6.4-6.4z" fill="#ffffff" opacity="1" data-original="#ffffff"></path><path d="M81 362.69c-1.89 0-3.44 1.54-3.44 3.44s1.55 3.44 3.44 3.44c1.9 0 3.45-1.54 3.45-3.44s-1.55-3.44-3.45-3.44zm0 4.69c-.68 0-1.24-.56-1.24-1.25s.56-1.25 1.24-1.25a1.25 1.25 0 0 1 0 2.5z" fill="#ffffff" opacity="1" data-original="#ffffff"></path></g><path fill="#fff259" d="M35.92 321.26c17.43.73 31.16 7.04 40.51 13.17 8.32 5.43 14.91 13.1 19.38 21.95l13.1 25.97c.35.69-.21 1.5-.97 1.44-.48-.03-.96-.08-1.44-.13l-12.74-25.22c-4.47-8.86-11.06-16.54-19.38-21.96-9.04-5.93-22.18-12.02-38.8-13.08-1.96-.13-3.95.39-5.53 1.56-.02.02-.04.03-.06.05 2.66-3.49 5.93-3.75 5.93-3.75z" opacity="1" data-original="#fff259"></path><path fill="#0085f2" d="M385.7 410.99c-.97.14-1.56 1.18-1.16 2.07 5.39 12.04 15.54 25.76 29.84 25.76 7.78 0 32.28-2.31 40.03-3.12 6.16-.64 15.08-1.06 20.2-5 2.74-2.11 3.09-5.97 3.16-9.16.14-6.54.8-16.28-5.33-20.7-3.26-2.35-6.69-1.21-10.33-.68-19.91 2.9-56.52 7.9-76.41 10.83z" opacity="1" data-original="#0085f2"></path><path fill="#424566" d="M408.91 410.54c-.84.12-1.35 1.02-1 1.79 4.66 10.42 13.45 22.29 25.82 22.29 6.74 0 13.49-.08 20.19-.79 5.33-.56 13.05-.92 17.48-4.33 2.37-1.82 2.67-5.16 2.73-7.93.12-5.66.69-14.09-4.61-17.91-2.82-2.03-5.79-1.05-8.94-.59-17.22 2.51-34.45 4.93-51.67 7.47z" opacity="1" data-original="#424566"></path><path fill="#2192ff" d="M126.31 410.99c.97.14 1.56 1.18 1.16 2.07-5.39 12.04-15.54 25.76-29.84 25.76-7.78 0-32.28-2.31-40.03-3.12-6.16-.64-15.08-1.06-20.2-5-2.74-2.11-3.09-5.97-3.16-9.16-.14-6.54-.8-16.28 5.33-20.7 3.26-2.35 6.69-1.21 10.33-.68 19.9 2.9 56.51 7.9 76.41 10.83z" opacity="1" data-original="#2192ff"></path><path fill="#616484" d="M103.09 410.54c.84.12 1.35 1.02 1 1.79-4.66 10.42-13.45 22.29-25.82 22.29-6.74 0-13.49-.08-20.19-.79-5.33-.56-13.05-.92-17.48-4.33-2.37-1.82-2.67-5.16-2.73-7.93-.12-5.66-.69-14.09 4.61-17.91 2.82-2.03 5.79-1.05 8.94-.59 17.22 2.51 34.46 4.93 51.67 7.47z" opacity="1" data-original="#616484"></path><path fill="#2192ff" d="M506.03 209.85c-3.27-2.36-7.28-3.48-11.32-3.48h-11.92c-3.94 0-6.91 1.23-9.15 2.89-3.8 2.83-5.86 7.44-5.86 12.18v9.86h40.86c3.16-4.87 3.35-10.26 3.35-10.26.01-5.41-2.86-8.95-5.96-11.19z" opacity="1" data-original="#2192ff"></path><path fill="#424566" d="M458.7 231.32c1.09 2.54 2.14 5.09 3.19 7.65h31.35c8.19 0 12.8-3.65 15.4-7.66H460.2z" opacity="1" data-original="#424566"></path><path fill="#47b5ff" d="M44.23 221.44c0-4.74-2.06-9.35-5.87-12.18-2.22-1.66-5.2-2.89-9.15-2.89H17.3c-4.04 0-8.04 1.12-11.32 3.48C2.87 212.09 0 215.63 0 221.04c0 0 .19 5.35 3.32 10.2h40.91z" opacity="1" data-original="#47b5ff"></path><path fill="#616484" d="M44.23 231.24H3.32c2.59 4.03 7.21 7.73 15.44 7.73H50.1c1.04-2.55 2.11-5.11 3.18-7.65zM488.47 446.32c-2.27 5.14-7.39 8.64-13.25 8.64H36.78c-5.86 0-10.98-3.5-13.23-8.64h103.22c9.88 0 18.98-5.39 23.7-14.08l4.31-7.89a32.84 32.84 0 0 1 28.86-17.14h145a32.86 32.86 0 0 1 28.86 17.14l4.31 7.89a26.979 26.979 0 0 0 23.7 14.08z" opacity="1" data-original="#616484"></path><path fill="#424566" d="M385.51 446.32c-9.88 0-18.98-5.39-23.71-14.07l-4.3-7.89a32.851 32.851 0 0 0-28.86-17.14H256v47.74h219.23c5.86 0 10.98-3.5 13.25-8.64z" opacity="1" data-original="#424566"></path><path fill="#5cc5ff" d="m447.02 240.56-6.96.75-.69.08h-.21c-58.23 4.8-119.66 7.36-183.16 7.36s-124.95-2.55-183.18-7.36h-.21l-.69-.08-6.96-.75-14.88-1.6s28.3 93.58 82.38 93.58h247.05c54.08 0 82.36-93.58 82.36-93.58z" opacity="1" data-original="#5cc5ff"></path><path fill="#47b5ff" d="m447.02 240.56-6.96.75-.68.08h-.21c-58.23 4.81-119.66 7.36-183.16 7.36H256v83.8h123.54c53.73 0 81.99-92.36 82.36-93.57v-.01z" opacity="1" data-original="#47b5ff"></path><path fill="#616484" d="M394.52 330.07c-4.76 1.6-9.75 2.47-14.99 2.47H132.48c-5.25 0-10.25-.88-15-2.47-1.1 5.94 1.34 12.24 3.59 17.78 3.94 9.78 10.34 18.61 17.33 26.5 3.58 4.05 9.07 6.86 13.22 7.01 34.83 1.21 69.59 1.82 104.39 1.82s69.56-.61 104.37-1.82c4.17-.14 9.64-2.95 13.23-7.01 6.98-7.89 13.39-16.71 17.33-26.5 2.26-5.53 4.67-11.82 3.58-17.78z" opacity="1" data-original="#616484"></path><path fill="#424566" d="M394.53 330.08c-4.76 1.59-9.76 2.47-14.99 2.47H256v50.63h.01c34.8 0 69.56-.61 104.37-1.82 4.17-.14 9.64-2.95 13.24-7.01 6.97-7.88 13.39-16.71 17.33-26.49 2.25-5.54 4.66-11.83 3.58-17.78z" opacity="1" data-original="#424566"></path><g fill="#72769c"><path d="M147.14 332.55v47.82c-1.8-.67-3.63-1.67-5.32-2.91v-44.91zM167.42 332.55v49.32c-1.77-.05-3.55-.11-5.32-.16v-49.16zM187.69 332.55v49.84c-1.77-.03-3.55-.07-5.32-.13v-49.71zM207.97 332.55v50.23c-1.78-.02-3.55-.05-5.32-.08v-50.15zM228.24 332.55v50.5c-1.77-.02-3.54-.03-5.31-.06v-50.44zM248.52 332.55v50.61c-1.77.01-3.55 0-5.32-.01v-50.6z" fill="#72769c" opacity="1" data-original="#72769c"></path></g><path fill="#616484" d="M268.8 332.55v50.6c-1.77.01-3.55.02-5.32.01v-50.61zM289.07 332.55v50.44c-1.77.03-3.54.04-5.32.06v-50.5zM309.35 332.55v50.15c-1.77.03-3.55.07-5.32.08v-50.23zM329.62 332.55v49.71c-1.78.06-3.55.1-5.32.13v-49.84zM349.9 332.55v49.16c-1.77.05-3.55.11-5.32.16v-49.32zM370.18 332.55v44.91c-1.69 1.25-3.52 2.25-5.32 2.92v-47.83z" opacity="1" data-original="#616484"></path><circle cx="256" cy="357.52" r="21.38" fill="#e6eaff" opacity="1" data-original="#e6eaff"></circle><path fill="#cad4ff" d="M256 336.13v42.77c11.81 0 21.39-9.57 21.39-21.38s-9.58-21.39-21.39-21.39z" opacity="1" data-original="#cad4ff"></path><circle cx="256" cy="357.52" r="16.56" fill="#616484" opacity="1" data-original="#616484"></circle><path fill="#424566" d="M256 340.96v33.12c9.15 0 16.56-7.42 16.56-16.56 0-9.15-7.41-16.56-16.56-16.56z" opacity="1" data-original="#424566"></path><path fill="#e6eaff" d="m256 339.63-15.08 26.86h30.15z" opacity="1" data-original="#e6eaff"></path><path fill="#cad4ff" d="M256 339.62v26.86h15.08z" opacity="1" data-original="#cad4ff"></path><path fill="#616484" d="m249.46 361.49 6.54-11.65 6.53 11.65z" opacity="1" data-original="#616484"></path><path fill="#424566" d="M256 349.84v11.64h6.54zM385.05 23.1a13.986 13.986 0 0 0-8.23-4.82c-10.3-1.91-20.74-2.87-31.17-2.87-10.44 0-20.87.96-31.17 2.87a14.021 14.021 0 0 0-11.47 13.79v45.87c0 3.38 1.21 6.52 3.24 8.97 2.04 2.45 4.91 4.2 8.23 4.82a170.99 170.99 0 0 0 62.34 0 14.021 14.021 0 0 0 11.47-13.79V32.07c0-3.38-1.21-6.52-3.24-8.97zm-11.32 42.5c0 3.24-2.63 5.87-5.87 5.87s-5.87-2.63-5.87-5.87V44.41c0-3.24 2.63-5.87 5.87-5.87 1.62 0 3.09.66 4.15 1.72s1.72 2.53 1.72 4.15z" opacity="1" data-original="#424566"></path><path fill="#e6eaff" d="M303.01 71.08H190.66c-.63 0-1.21-.33-1.54-.87l-2.48-4.14a1.79 1.79 0 0 0-3.01-.1l-2.99 4.34c-.33.48-.88.77-1.47.77h-9.96c-.53 0-1.04-.24-1.38-.65l-4.13-4.99c-.74-.9-2.13-.86-2.82.08l-3.55 4.83c-.34.46-.87.73-1.44.73h-17.5c-.51 0-.99-.21-1.33-.59l-12.88-14.3c-.61-.68-.61-1.72 0-2.4l12.88-14.3c.34-.38.82-.59 1.33-.59h164.62z" opacity="1" data-original="#e6eaff"></path><path fill="#cad4ff" d="M256 38.92h47.01v32.17H256z" opacity="1" data-original="#cad4ff"></path></g></svg>